<?xml version="1.0" encoding="utf-8"?>
<!-- Generator: Adobe Illustrator 24.3.0, SVG Export Plug-In . SVG Version: 6.00 Build 0)  -->
<svg version="1.1" id="Layer_2" xmlns="http://www.w3.org/2000/svg" xmlns:xlink="http://www.w3.org/1999/xlink" x="0px" y="0px"
	 viewBox="0 0 3000 3000" style="enable-background:new 0 0 3000 3000;" xml:space="preserve">
<style type="text/css">
	.st0{fill:none;stroke:#000000;stroke-width:5;stroke-linecap:round;stroke-linejoin:round;stroke-miterlimit:10;}
	.st1{fill:#008AE5;stroke:#000000;stroke-width:5;stroke-linecap:round;stroke-linejoin:round;stroke-miterlimit:10;}
	.st2{fill:#007ACC;stroke:#000000;stroke-width:5;stroke-linecap:round;stroke-linejoin:round;stroke-miterlimit:10;}
	.st3{fill:#005C99;stroke:#000000;stroke-width:5;stroke-linecap:round;stroke-linejoin:round;stroke-miterlimit:10;}
	.st4{fill:#0099FF;stroke:#000000;stroke-width:5;stroke-linecap:round;stroke-linejoin:round;stroke-miterlimit:10;}
	.st5{fill:#004C80;stroke:#000000;stroke-width:5;stroke-linecap:round;stroke-linejoin:round;stroke-miterlimit:10;}
	.st6{fill:#006BB2;stroke:#000000;stroke-width:5;stroke-linecap:round;stroke-linejoin:round;stroke-miterlimit:10;}
	.st7{fill:#003D66;stroke:#000000;stroke-width:5;stroke-linecap:round;stroke-linejoin:round;stroke-miterlimit:10;}
	.st8{fill:#002E4C;stroke:#000000;stroke-width:5;stroke-linecap:round;stroke-linejoin:round;stroke-miterlimit:10;}
</style>
<polygon class="st0" points="882.2,104.6 923.6,153.5 988.8,191.1 988.8,222.5 1042.7,233.8 1051.5,257.6 1090.4,257.6 
	1136.8,223.7 1194.5,216.2 1267.2,246.3 1249.7,334.1 1207,357.9 1202,401.8 1155.6,401.8 1166.9,430.7 1156.9,462 1199.5,473.3 
	1195.8,494.6 1215.8,519.7 1171.9,559.9 1149.3,544.8 1144.3,521 1114.2,534.8 1141.8,590 1145.6,635.1 1175.7,643.9 1204.5,687.8 
	1240.9,687.8 1327.5,753 1276,794.4 1268.5,847.1 1249.7,886 1343.8,929.2 1398.3,978.2 1418.1,969.7 1465.1,990.4 1515.9,1021.4 
	1531,1006.4 1562,1021.4 1578,1010.1 1630.7,1021.4 1630.7,1044.9 1681.5,1074.1 1708.7,1061.9 1725.7,1064.7 1733.2,1081.6 
	1799,1096.7 1824.4,1087.3 1855.5,1104.2 1865.8,1089.2 1909.1,1095.7 1923.2,1081.6 1923.2,1053.4 1905.3,1023.3 1923.2,956.5 
	1962.7,931.1 1986.2,955.6 1972.1,980 1986.2,997.9 1973.1,1017.7 2001.3,1048.7 2027.6,1041.2 2063.4,1056.2 2112.3,1030.8 
	2171.6,1041.2 2251.5,1026.1 2241.2,1002.6 2243,970.6 2204.5,963.1 2197.9,934.9 2230.8,945.2 2244.9,929.2 2264.4,936.8 
	2287.6,920.5 2287.6,900.4 2328.3,882.2 2332.7,852.1 2384.1,845.2 2399.8,798.2 2436.2,776.8 2451.2,789.4 2500.2,796.3 
	2507.1,773.7 2552.2,749.9 2572.3,765.6 2558.5,782.5 2565.4,805.1 2579.2,784.4 2591.7,786.9 2599.9,809.5 2576.7,847.1 
	2587.3,852.1 2604.9,840.8 2668.2,852.1 2673.2,878.4 2659.5,885.3 2639.4,914.2 2663.2,953.1 2654.4,960.6 2637.5,951.2 
	2631.2,936.1 2613,938.6 2572.3,958.1 2552.2,986.9 2525.2,1015.2 2508.9,1014.5 2497,1039 2510.8,1076.6 2496.4,1114.2 
	2473.2,1138.7 2471.3,1158.1 2485.7,1165.7 2485.7,1185.1 2463.8,1224 2457.5,1268.5 2447.5,1287.9 2413.6,1278.5 2392.9,1284.2 
	2381.6,1267.3 2374.1,1276 2386.7,1325.6 2382.3,1343.8 2386.7,1358.2 2378.5,1370.1 2360.9,1375.7 2367.2,1411.5 2376.6,1432.8 
	2379.8,1452.3 2367.2,1452.3 2365.3,1470.4 2352.8,1470.4 2349.7,1458.5 2340.9,1458.5 2339.6,1470.4 2327.7,1475.5 2318.9,1409 
	2303.9,1387 2297.6,1357.6 2304.5,1348.2 2290.7,1329.3 2289.5,1311.8 2260,1318.7 2263.1,1338.1 2252.5,1353.8 2258.7,1375.7 
	2244.3,1394.6 2231.1,1386.4 2217.3,1385.2 2206,1350.7 2191.6,1328.1 2209.8,1286.1 2253.1,1276 2253.7,1258.5 2271.9,1254.7 
	2273.1,1237.2 2296.4,1205.2 2289.5,1191.4 2271.3,1187.6 2255.6,1178.2 2219.8,1188.9 2184.1,1181.3 2164.7,1190.7 2118.2,1194.5 
	2066.2,1180.7 2071.8,1156.3 2066.8,1121.1 2056.8,1098.6 2046.8,1098.6 2044.2,1118.6 2019.2,1118.6 1996.6,1097.3 1970.2,1097.9 
	1957.7,1081 1945.8,1096.1 1927,1128.7 1934.5,1149.4 1955.8,1168.8 1986.6,1170.7 1998.5,1188.2 1988.4,1205.2 1955.2,1205.2 
	1953.3,1224.6 1934.5,1230.9 1928.9,1262.2 1950.2,1281.7 1981.5,1281.7 1986.6,1316.8 1969,1331.2 1972.1,1355.7 1991.6,1356.9 
	1987.8,1380.8 2007.9,1383.3 2003.5,1405.8 2014.8,1415.9 2013.5,1468.2 2025.7,1479.2 2027,1504 2027,1530.7 2004.7,1539.1 
	1993.5,1516.5 1985,1518.4 1980.6,1542.6 1967.7,1536 1960.5,1542.6 1946.1,1536.6 1954.3,1502.1 1954.9,1486.4 1940.5,1484.2 
	1936.7,1505.2 1926.7,1527.2 1891.5,1540.1 1877.1,1549.1 1865.4,1549.1 1837.6,1574.1 1836.7,1592.4 1851.3,1609.8 1852.7,1638.5 
	1798.1,1700.1 1735.1,1723.2 1728.8,1705 1700,1720 1689.9,1740.7 1696.8,1750.8 1664.8,1785.3 1607.8,1864.9 1563.2,1885 
	1546.9,1901.3 1529.4,1927 1468.6,1960.8 1441,1992.2 1455.1,2001 1448.6,2027 1403,2047.7 1371,2045.4 1355,2052.9 1350.3,2082 
	1332.5,2091.4 1330.1,2106 1313.2,2109.8 1312.7,2095.2 1289.2,2092.4 1268,2107.4 1260,2130.5 1244.5,2154 1245.9,2185.5 
	1259.6,2215.6 1253.5,2264.5 1267.1,2288.5 1262.2,2303.3 1244,2313.3 1254.1,2322.7 1274.8,2322.7 1269.1,2367.9 1222.1,2471.3 
	1215.8,2505.2 1227.7,2529.6 1225.2,2625 1185.7,2618.7 1166.9,2625 1167.5,2648.8 1139.9,2685.2 1136.2,2705.9 1158.8,2715.9 
	1156.2,2725.3 1123,2725.3 1084.1,2737.2 1064.7,2760.4 1062.2,2792.4 1049,2810 1006.4,2834.4 986.3,2830.7 968.7,2810 
	913.6,2753.5 891,2692.1 889.1,2638.1 859,2567.3 859,2539.1 826.4,2488.9 788.8,2426.2 772.4,2381.6 755.5,2337.1 755.5,2276.9 
	728.6,2232.4 709.1,2182.2 719.1,2169.7 691.6,2156.5 686.2,2134.2 669.3,2085.3 640.1,2013.8 635.4,1921.7 611,1826.6 
	605.3,1760.8 605.3,1700.6 605.3,1651.7 625.1,1643.2 629.8,1612.2 605.3,1578.3 625.1,1540.7 605.3,1538.8 605.3,1519 
	605.3,1493.6 628.8,1496.9 632.6,1477.7 585.6,1474.8 558.3,1513.4 578,1536 558.3,1580.2 522.5,1595.2 497.1,1590.5 477.4,1610.3 
	423.8,1609.3 383.3,1578.3 337.2,1513.4 288.3,1458.8 300.5,1437.2 320.3,1438.1 312.8,1462.6 354.2,1457 400.3,1441 432.2,1413.7 
	449.2,1381.7 438.8,1376.1 425.7,1386.4 414.4,1382.6 399.3,1392.1 388,1407.1 358.9,1415.6 318.4,1411.8 274.2,1377.9 
	251.6,1336.6 237.5,1325.3 245,1298.9 289.3,1303.6 290.2,1271.6 366.4,1277.3 373.9,1295.2 402.1,1294.2 405,1277.3 444.5,1268.8 
	444.5,1287.6 466.1,1295.2 469.9,1280.1 485.9,1280.1 483,1252.8 494,1246.2 463.6,1186.7 462,1153.7 431.6,1151.2 413.4,1118.6 
	424.7,1071.3 397.4,1068.5 372,1043.1 377.7,1005.4 419.1,976.3 433.2,943.3 467,933.9 478.3,949 480.2,964 568.6,957.5 
	577.1,928.3 602.5,913.2 613.8,881.3 666.5,858.7 698.4,805.1 700.3,768.4 753,763.7 757.7,741.1 756.8,719.5 817,670.5 
	803.8,659.3 806.6,636.7 799.1,610.3 820.7,581.2 867.8,574.6 875.3,554.8 855.2,538.5 825.1,534.2 821.4,507.2 785.6,502.2 
	738.6,474.6 727.6,350.7 732.3,336.6 748.3,338.5 753,318.7 779.3,312.2 785,286.8 760.5,273.6 761.5,246.3 739.8,246.3 
	717.3,223.7 716.3,206.8 670.2,210.6 667.4,171 693.7,168.2 715.4,130.6 764.3,129.7 770.9,113.7 796.3,124 831.1,104.6 
	857.4,115.5 "/>
<polygon class="st1" points="968.7,2810 981.9,2790.5 978.8,2747.3 995.7,2699.6 995.7,2686.4 975,2677.6 986.3,2624.3 
	976.9,2609.9 956.2,2623.1 942.4,2609.9 942.4,2586.7 950.6,2578.6 950.6,2566.6 930.5,2556 941.1,2546 937.4,2532.2 915.4,2532.2 
	915.4,2512.1 890.3,2502.1 895.4,2495.2 908.5,2487 902.3,2468.2 880.3,2460 856.5,2455 823.2,2428.1 816.3,2404.2 790,2382.3 
	772.4,2381.6 788.8,2426.2 826.4,2488.9 859,2539.1 859,2567.3 889.1,2638.1 891,2692.1 913.6,2753.5 "/>
<polygon class="st2" points="908.5,2487 919,2484.7 920.9,2491.2 949.1,2491.2 945.4,2478.5 963.7,2472.9 987.2,2472.9 991,2482.1 
	1001.3,2478.5 1001.3,2469.1 1031,2455 1031,2443.3 1004.6,2437.1 1004.6,2428.7 1014.5,2428.7 1019.2,2416.9 1016.4,2396.7 
	1031,2394.8 1037.6,2385.4 1037.6,2374.1 1063,2378.4 1079.4,2387.3 1091.7,2397.6 1100.6,2395.3 1114.2,2362.8 1138.7,2353.9 
	1162.7,2358.6 1189.5,2345.4 1185.3,2329.4 1199.8,2329.4 1204.1,2339.8 1224.8,2337 1244,2313.3 1254.1,2322.7 1274.8,2322.7 
	1269.1,2367.9 1222.1,2471.3 1215.8,2505.2 1227.7,2529.6 1225.2,2625 1185.7,2618.7 1166.9,2625 1167.5,2648.8 1139.9,2685.2 
	1136.2,2705.9 1158.8,2715.9 1156.2,2725.3 1123,2725.3 1084.1,2737.2 1064.7,2760.4 1062.2,2792.4 1049,2810 1006.4,2834.4 
	986.3,2830.7 968.7,2810 981.9,2790.5 978.8,2747.3 995.7,2699.6 995.7,2686.4 975,2677.6 986.3,2624.3 976.9,2609.9 956.2,2623.1 
	942.4,2609.9 942.4,2586.7 950.6,2578.6 950.6,2566.6 930.5,2556 941.1,2546 937.4,2532.2 915.4,2532.2 915.4,2512.1 890.3,2502.1 
	895.4,2495.2 "/>
<polygon class="st3" points="719.1,2169.7 719.1,2103.2 698.4,2090 670.9,2090 686.2,2134.2 691.6,2156.5 "/>
<polygon class="st4" points="719.1,2103.2 746.4,2052.4 726.7,2039.2 725.7,2019.5 779.3,2005.4 791.6,1982.8 819.8,1989.4 
	849,1982.8 856.5,1964.9 845.2,1951.8 856.5,1934.8 878.1,1952.7 914.8,1952.7 910.1,1929.2 941.1,1924.5 995.7,1852 1025.8,1862.4 
	1013.6,1926.4 1033.3,1937.6 1010.8,1977.6 1015.5,2028.9 1000.4,2049.6 1020.2,2055.2 1013.6,2086.3 983.5,2081.6 963.7,2129.9 
	984.4,2153.1 978.8,2175.6 954.3,2175.6 944,2213.3 974.1,2242.4 1010.8,2242.4 999.5,2264.1 985.4,2264.1 958.1,2245.2 
	949.6,2264.1 968.4,2274.4 965.6,2294.2 981.6,2294.2 986.3,2273.5 1007,2294.2 1051.2,2275.3 1068.1,2281.9 1068.1,2304.5 
	1089.8,2313.3 1089.8,2334.6 1111.4,2341.2 1092.6,2364.7 1079.4,2387.3 1063,2378.4 1037.6,2374.1 1037.6,2385.4 1031,2394.8 
	1016.4,2396.7 1019.2,2416.9 1014.5,2428.7 1004.6,2428.7 1004.6,2437.1 1031,2443.3 1031,2455 1001.3,2469.1 1001.3,2478.5 
	991,2482.1 987.2,2472.9 963.7,2472.9 949.2,2477.3 949.1,2491.2 920.9,2491.2 919,2484.7 908.5,2487 902.3,2468.2 880.3,2460 
	856.5,2455 823.2,2428.1 816.3,2404.2 790,2382.3 772.4,2381.6 755.5,2337.1 755.5,2276.9 728.6,2232.4 709.1,2182.2 719.1,2169.7 
	"/>
<polygon class="st5" points="1013.6,2086.3 1031.4,2104.5 1068.4,2108.2 1082.6,2100.1 1082.6,2083.8 1118,2083.8 1128.7,2092.5 
	1138.1,2088.8 1138.1,2076.2 1156.2,2070 1170,2070 1175.1,2037.4 1225.9,2024.2 1237.8,2031.1 1245.9,2024.2 1240.3,2007.3 
	1252.8,1997.2 1265.4,1997.2 1265.4,2014.8 1286.7,2021.7 1291.7,2006.6 1274.8,1999.7 1278.5,1989.1 1291.7,1985.3 1313.7,1994.7 
	1321.2,1980.3 1343.8,1980.3 1343.8,1969 1358.8,1969 1358.8,1957.7 1329.3,1943.9 1316.2,1923.2 1334.3,1911.3 1370.1,1911.3 
	1428.4,1888.1 1437.2,1895 1449.1,1888.1 1449.1,1849.2 1455.4,1841.7 1467.3,1845.5 1476.7,1869.3 1494.3,1854.9 1516.8,1858 
	1509.9,1832.9 1521.9,1819.7 1543.8,1812.8 1538.2,1797.8 1562.6,1785.9 1575.2,1802.8 1583.3,1804.4 1588.3,1816.3 1601.2,1813.5 
	1609.7,1822.3 1626,1817.2 1626,1808.1 1634.7,1804.1 1634.7,1793.1 1652,1780.6 1664.8,1785.3 1607.8,1864.9 1563.2,1885 
	1546.9,1901.3 1529.4,1927 1468.6,1960.8 1441,1992.2 1455.1,2001 1448.6,2027 1403,2047.7 1371,2045.4 1355,2052.9 1350.3,2082 
	1332.5,2091.4 1330.1,2106 1313.2,2109.8 1312.7,2095.2 1289.2,2092.4 1268,2107.4 1260,2130.5 1244.5,2154 1245.9,2185.5 
	1259.6,2215.6 1253.5,2264.5 1267.1,2288.5 1262.2,2303.3 1244,2313.3 1224.8,2337 1204.1,2339.8 1199.8,2329.4 1185.3,2329.4 
	1189.5,2345.4 1162.7,2358.6 1138.7,2353.9 1114.2,2362.8 1100.6,2395.3 1091.7,2397.6 1079.4,2387.3 1092.6,2364.7 1111.4,2341.2 
	1089.8,2334.6 1089.8,2313.3 1068.1,2304.5 1068.1,2281.9 1051.2,2275.3 1007,2294.2 986.3,2273.5 981.6,2294.2 965.6,2294.2 
	968.4,2274.4 949.6,2264.1 958.1,2245.2 985.4,2264.1 999.5,2264.1 1010.8,2242.4 974.1,2242.4 944,2213.3 954.3,2175.6 
	978.8,2175.6 984.4,2153.1 963.7,2129.9 983.5,2081.6 "/>
<polygon class="st6" points="605.3,1681.8 653.3,1681.8 679.6,1667.7 670.9,1644.2 670.9,1629.1 695,1642.3 709.1,1629.1 
	709.1,1607.5 688.1,1592.4 695,1579.2 719.1,1579.2 730.4,1560.4 703.2,1549.1 709.1,1526.6 730.4,1516.2 763.4,1510.6 
	769.9,1522.8 758.7,1541.6 782.2,1553.8 798.2,1549.1 818.9,1571.7 889.4,1572.7 904.5,1582.1 904.5,1604.6 944,1600.9 
	966.5,1553.8 1021.1,1540.7 1032.4,1557.6 1032.4,1577.4 1070,1579.2 1100.1,1559.5 1142.5,1571.7 1157.5,1551 1194.2,1552 
	1208.3,1568 1262.9,1556.7 1297.7,1588.7 1280.7,1602.8 1282.6,1622.5 1297.7,1636.6 1297.7,1675.2 1276,1688.4 1280.7,1715.6 
	1304.4,1748.6 1324,1759.9 1310.8,1780.6 1292,1769.3 1266.6,1793.7 1264.7,1826.6 1238.4,1820.1 1240.3,1758.9 1222.4,1749.5 
	1167.8,1754.2 1132.1,1727.9 1093.5,1723.2 1091.7,1758.9 1054,1772.1 1042.7,1798.4 1055,1817.2 1043.7,1839.8 1025.8,1862.4 
	995.7,1852 941.1,1924.5 910.1,1929.2 914.8,1952.7 878.1,1952.7 856.5,1934.8 845.2,1951.8 856.5,1964.9 849,1982.8 819.8,1989.4 
	791.6,1982.8 779.3,2005.4 725.7,2019.5 726.7,2039.2 746.4,2052.4 719.1,2103.2 698.4,2090 670.9,2090 640.1,2013.8 635.4,1921.7 
	611,1826.6 "/>
<polyline class="st7" points="1025.8,1862.4 1013.6,1926.4 1033.3,1937.6 1010.8,1977.6 1015.5,2028.9 1000.4,2049.6 1020.2,2055.2 
	1013.6,2086.3 1031.4,2104.5 1068.4,2108.2 1082.6,2100.1 1082.6,2083.8 1118,2083.8 1128.7,2092.5 1138.1,2088.8 1138.1,2076.2 
	1156.2,2070 1170,2070 1175.1,2037.4 1225.9,2024.2 1237.8,2031.1 1245.9,2024.2 1240.3,2007.3 1252.8,1997.2 1265.4,1997.2 
	1265.4,2014.8 1286.7,2021.7 1291.7,2006.6 1274.8,1999.7 1278.5,1989.1 1291.7,1985.3 1313.7,1994.7 1321.2,1980.3 1343.8,1980.3 
	1343.8,1969 1358.8,1969 1358.8,1957.7 1329.3,1943.9 1316.2,1923.2 1334.3,1911.3 1328.7,1881.7 1293.4,1838.4 1273.2,1836.5 
	1264.7,1826.6 1252.7,1823.6 1238.4,1820.1 1238.4,1802.2 1239.2,1793.5 1238.4,1784.8 1238.4,1758.9 1222.4,1749.5 1200.3,1751.4 
	1179.6,1753.2 1167.8,1754.2 1156.8,1746.1 1145.6,1737.8 1132.6,1726.9 1119.2,1726.3 1100.4,1724 1093.5,1723.2 1091.7,1758.9 
	1079,1764.1 1069.2,1766.8 1062.7,1769 1054,1772.1 1042.7,1798.4 1055,1817.2 1046.1,1835 1033.4,1852.8 1025.8,1862.4 "/>
<polygon class="st5" points="492.6,1243.5 569.9,1252.2 639.5,1287.9 652.7,1273.5 664.6,1287.9 655.2,1301.1 664.6,1318.7 
	680.3,1318.7 682.8,1328.7 677.1,1345 698.4,1360.7 698.4,1378.9 740.5,1394.6 740.5,1405.2 753,1405.2 759.9,1415.3 759.9,1428.4 
	765.6,1434.7 748.6,1457.3 730.4,1460.4 736.1,1492.4 730.4,1516.2 709.1,1526.6 703.2,1549.1 730.4,1560.4 719.1,1579.2 
	695,1579.2 688.1,1592.4 709.1,1607.5 709.1,1629.1 695,1642.3 670.9,1629.1 670.9,1644.2 679.6,1667.7 653.3,1681.8 605.3,1681.8 
	605.3,1651.7 625.1,1643.2 629.8,1612.2 605.3,1578.3 625.1,1540.7 605.3,1538.8 605.3,1493.6 628.8,1496.9 632.6,1477.7 
	585.6,1474.8 558.3,1513.4 578,1536 558.3,1580.2 522.5,1595.2 497.1,1590.5 477.4,1610.3 423.8,1609.3 383.3,1578.3 337.2,1513.4 
	288.3,1458.8 300.5,1437.2 320.3,1438.1 312.8,1462.6 354.2,1457 400.3,1441 432.2,1413.7 449.2,1381.7 438.8,1376.1 425.7,1386.4 
	414.4,1382.6 399.3,1392.1 388,1407.1 358.9,1415.6 318.4,1411.8 274.2,1377.9 251.6,1336.6 237.5,1325.3 245,1298.9 289.3,1303.6 
	290.2,1271.6 366.4,1277.3 373.9,1295.2 402.1,1294.2 405,1277.3 444.5,1268.8 444.5,1287.6 466.1,1295.2 469.9,1280.1 
	485.9,1280.1 483,1252.8 "/>
<polygon class="st6" points="753,763.7 801,776.8 806.6,836.1 833,828.6 864,840.8 878.1,906.7 910.1,926.4 913.9,942.4 
	904.5,969.7 922.3,976.3 922.3,953.7 944.9,946.2 958.1,962.2 979.7,938.6 992.9,949.9 983.5,993.2 1019.2,981.9 1029.6,1014.8 
	1046.5,1026.1 1046.5,1051.5 1027.7,1067.5 1031.4,1076.9 1059.7,1064.7 1090.7,1062.8 1102,1071.3 1080.4,1088.2 1059.7,1088.2 
	979.7,1139.9 972.2,1155 956.2,1159.7 947.7,1173.8 949.6,1197.3 964.7,1213.3 1000.4,1213.3 1013.6,1196.4 1022,1207.7 
	1023,1229.3 981.6,1234 972.2,1257.5 991.9,1262.2 993.8,1290.5 976.9,1290.5 982.5,1316.8 964.7,1323.4 946.8,1309.3 919.5,1306.4 
	916.7,1323.4 898.8,1332.8 898.8,1343.1 869.7,1353.5 854.6,1338.4 861.2,1325.3 874.4,1330.9 882.8,1323.4 880.9,1292.3 
	893.2,1290.5 890.3,1268.8 879.1,1261.3 854.6,1269.8 838.6,1262.2 849,1243.5 844.3,1230.3 830.1,1234 825.4,1250.9 810.4,1243.5 
	799.1,1272.6 796.3,1299.9 811.3,1305.5 817.9,1326.2 807.6,1341.3 806.6,1366.7 785.9,1375.1 773.7,1390.2 789.7,1397.7 
	789.7,1406.5 775.3,1413.7 759.9,1415.3 753,1405.2 740.5,1405.2 740.5,1394.6 698.4,1378.9 698.4,1360.7 677.1,1345 682.8,1328.7 
	680.3,1318.7 664.6,1318.7 655.2,1301.1 664.6,1287.9 652.7,1273.5 639.5,1287.9 569.9,1252.2 492.6,1243.5 463.6,1186.7 
	462,1153.7 431.6,1151.2 413.4,1118.6 424.7,1071.3 397.4,1068.5 372,1043.1 377.7,1005.4 419.1,976.3 433.2,943.3 467,933.9 
	478.3,949 480.2,964 568.6,957.5 577.1,928.3 602.5,913.2 613.8,881.3 666.5,858.7 698.4,805.1 700.3,768.4 "/>
<polygon class="st1" points="1102,1071.3 1147.6,1076.5 1163.1,1093.4 1169.7,1121.1 1159.4,1150.3 1135.9,1186 1110.9,1188.9 
	1097.3,1207.2 1107.6,1228.4 1089.8,1248.6 1089.8,1286.2 1106.2,1307.9 1116.1,1299.9 1129.8,1313.5 1144.8,1313.5 1155.1,1304.6 
	1152.3,1281.5 1134,1280.1 1121.8,1215.2 1148.6,1192.4 1157,1200.6 1148.1,1216.6 1165.5,1229.3 1179.6,1228.8 1188.1,1218 
	1199.8,1220.8 1199.8,1231.2 1225.2,1228.4 1266.6,1206.3 1279.3,1223.7 1275.1,1241.5 1290.1,1242.5 1294.8,1233.1 1316.5,1231.7 
	1319.8,1249.1 1342.8,1248.6 1351.3,1227.9 1371,1227.4 1404,1245.8 1439.7,1270.2 1474,1269.3 1482.5,1283.9 1470.4,1289.8 
	1467.3,1317.4 1479.8,1336.9 1455.4,1353.8 1402.1,1353.8 1383.9,1341.9 1375.7,1346.9 1384.5,1357.6 1377.6,1375.7 1381.4,1385.2 
	1395.8,1377.6 1432.2,1396.4 1427.2,1418.4 1407.1,1424.7 1393.9,1462.6 1367.6,1482.4 1345.6,1474.8 1341.2,1493.6 1318,1516.2 
	1319.3,1541.9 1306.8,1546.9 1306.8,1570.2 1297.7,1588.7 1262.9,1556.7 1208.3,1568 1194.2,1552 1157.5,1551 1142.5,1571.7 
	1100.1,1559.5 1070,1579.2 1032.4,1577.4 1032.4,1557.6 1021.1,1540.7 966.5,1553.8 944,1600.9 904.5,1604.6 904.5,1582.1 
	889.4,1572.7 818.9,1571.7 798.2,1549.1 782.2,1553.8 758.7,1541.6 769.9,1522.8 763.4,1510.6 730.4,1516.2 736.1,1492.4 
	730.4,1460.4 748.6,1457.3 765.6,1434.7 759.9,1428.4 759.9,1415.3 775.3,1413.7 789.7,1406.5 789.7,1397.7 773.7,1390.2 
	785.9,1375.1 806.6,1366.7 807.6,1341.3 817.9,1326.2 811.3,1305.5 796.3,1299.9 799.1,1272.6 810.4,1243.5 825.4,1250.9 
	830.1,1234 844.3,1230.3 849,1243.5 838.6,1262.2 854.6,1269.8 879.1,1261.3 890.3,1268.8 893.2,1290.5 880.9,1292.3 882.8,1323.4 
	874.4,1330.9 861.2,1325.3 854.6,1338.4 869.7,1353.5 898.8,1343.1 898.8,1332.8 916.7,1323.4 919.5,1306.4 946.8,1309.3 
	964.7,1323.4 982.5,1316.8 976.9,1290.5 993.8,1290.5 991.9,1262.2 972.2,1257.5 981.6,1234 1023,1229.3 1022,1207.7 1013.6,1196.4 
	1000.4,1213.3 964.7,1213.3 949.6,1197.3 947.7,1173.8 956.2,1159.7 972.2,1155 979.7,1139.9 1059.7,1088.2 1080.4,1088.2 "/>
<polygon class="st4" points="801,776.8 823.9,771.5 854.3,788.4 848.6,806 861.8,812.6 872.2,792.1 903.8,792.1 914.8,799.7 
	932.7,790 937.7,763.7 959.3,768.1 971.2,759.9 969.7,747.7 991.9,733.9 987.9,692.5 970.6,678.1 971.2,659.3 953.7,641.1 
	935.2,649.9 921.7,593.1 896.5,578.7 917.3,549.8 914.2,535.4 875.3,554.8 867.8,574.6 820.7,581.2 799.1,610.3 806.6,636.7 
	803.8,659.3 817,670.5 756.8,719.5 757.7,741.1 753,763.7 "/>
<polygon class="st5" points="987.9,692.5 1012.6,709.7 1012.6,730.4 1045.2,735.5 1045.2,749.3 1030.8,771.2 1016.6,771.2 
	1012.6,796.3 1000.7,805.1 997.6,830.2 1007,839.6 1006.4,856.5 1013.9,872.8 991.9,886 979.4,909.8 984.4,919.2 995.7,913.6 
	1012.3,924.8 1023.9,915.4 1035.8,924.8 1035.8,972.5 1019.2,981.9 983.5,993.2 992.9,949.9 979.7,938.6 958.1,962.2 944.9,946.2 
	922.3,953.7 922.3,976.3 904.5,969.7 913.9,942.4 910.1,926.4 878.1,906.7 864,840.8 833,828.6 806.6,836.1 801,776.8 823.9,771.5 
	854.3,788.4 848.6,806 861.8,812.6 872.2,792.1 903.8,792.1 914.8,799.7 932.7,790 937.7,763.7 959.3,768.1 971.2,759.9 
	969.7,747.7 991.9,733.9 "/>
<polygon class="st7" points="1013.9,872.8 1025.5,899.8 1023.9,915.4 1012.3,924.8 995.7,913.6 984.4,919.2 979.4,909.8 991.9,886 
	"/>
<polygon class="st6" points="914.2,535.4 918.6,514.1 910.4,505.9 910.4,496.5 918.6,496.5 927.3,502.2 956.2,477.1 991.9,475.2 
	991.9,488.4 1018.3,505.3 1047.1,507.8 1060.9,495.9 1076,516 1076,532.3 1114.2,534.8 1144.3,521 1149.3,544.8 1171.9,559.9 
	1215.8,519.7 1195.8,494.6 1199.5,473.3 1156.9,462 1166.9,430.7 1155.6,401.8 1202,401.8 1207,357.9 1249.7,334.1 1267.2,246.3 
	1194.5,216.2 1136.8,223.7 1090.4,257.6 1051.5,257.6 1042.7,233.8 988.8,222.5 988.8,191.1 923.6,153.5 882.2,104.6 857.4,115.5 
	831.1,104.6 796.3,124 770.9,113.7 764.3,129.7 715.4,130.6 693.7,168.2 667.4,171 670.2,210.6 716.3,206.8 717.3,223.7 
	739.8,246.3 761.5,246.3 760.5,273.6 785,286.8 779.3,312.2 753,318.7 748.3,338.5 732.3,336.6 727.6,350.7 738.6,474.6 
	785.6,502.2 821.4,507.2 825.1,534.2 855.2,538.5 875.3,554.8 "/>
<polygon class="st2" points="1045.2,735.5 1061.6,725.4 1061.6,682.8 1075.3,667.1 1105.5,664 1134.3,664 1152.5,677.8 1159.4,674 
	1145.6,635.1 1141.8,590 1114.2,534.8 1076,532.3 1076,516 1060.9,495.9 1047.1,507.8 1018.3,505.3 991.9,488.4 991.9,475.2 
	956.2,477.1 927.3,502.2 918.6,496.5 910.4,496.5 910.4,505.9 918.6,514.1 914.2,535.4 917.3,549.8 896.5,578.7 921.7,593.1 
	935.2,649.9 953.7,641.1 971.2,659.3 970.6,678.1 987.9,692.5 1012.6,709.7 1012.6,730.4 "/>
<polygon class="st4" points="1045.2,749.3 1065.9,749.3 1077.2,759.9 1077.2,769.3 1065.3,777.5 1061.2,801.3 1086,823.3 
	1114.2,806.3 1124.3,819.5 1152.5,830.8 1141.2,840.2 1152.5,857.7 1168.8,857.7 1195.8,883.5 1249.7,886 1268.5,847.1 1276,794.4 
	1327.5,753 1240.9,687.8 1204.5,687.8 1175.7,643.9 1145.6,635.1 1159.4,674 1152.5,677.8 1134.3,664 1105.5,664 1075.3,667.1 
	1061.6,682.8 1061.6,725.4 1045.2,735.5 "/>
<polygon class="st3" points="1562,1021.4 1579.9,1060.9 1607.1,1075 1610.9,1089.5 1586.5,1089.5 1562,1099.5 1593,1109.8 
	1593,1119.3 1578,1126.8 1593,1144.7 1628.8,1160.6 1625,1172.9 1585.5,1172.9 1562,1197.3 1525.3,1208.6 1521.5,1236.8 
	1536.6,1262.2 1537.5,1283.9 1529.4,1325.6 1511.8,1345 1493.6,1345 1479.8,1336.9 1467.3,1317.4 1470.4,1289.8 1482.5,1283.9 
	1474,1269.3 1439.7,1270.2 1404,1245.8 1371,1227.4 1351.3,1227.9 1342.8,1248.6 1319.8,1249.1 1316.5,1231.7 1294.8,1233.1 
	1290.1,1242.5 1275.1,1241.5 1279.3,1223.7 1266.6,1206.3 1225.2,1228.4 1199.8,1231.2 1199.8,1220.8 1188.1,1218 1179.6,1228.8 
	1165.5,1229.3 1148.1,1216.6 1157,1200.6 1148.6,1192.4 1121.8,1215.2 1134,1280.1 1152.3,1281.5 1155.1,1304.6 1144.8,1313.5 
	1129.8,1313.5 1116.1,1299.9 1106.2,1307.9 1089.8,1286.2 1089.8,1248.6 1107.6,1228.4 1097.3,1207.2 1110.9,1188.9 1135.9,1186 
	1159.4,1150.3 1169.7,1121.1 1163.1,1093.4 1147.6,1076.5 1102,1071.3 1090.7,1062.8 1059.7,1064.7 1031.4,1076.9 1027.7,1067.5 
	1046.5,1051.5 1046.5,1026.1 1029.6,1014.8 1019.2,981.9 1035.8,972.5 1035.8,924.8 1023.9,915.4 1025.5,899.8 1013.9,872.8 
	1006.4,856.5 1007,839.6 997.6,830.2 1000.7,805.1 1012.6,796.3 1016.6,771.2 1030.8,771.2 1045.2,749.3 1065.9,749.3 1077.2,759.9 
	1077.2,769.3 1065.3,777.5 1061.2,801.3 1086,823.3 1114.2,806.3 1124.3,819.5 1152.5,830.8 1141.2,840.2 1152.5,857.7 
	1168.8,857.7 1195.8,883.5 1249.7,886 1343.8,929.2 1398.3,978.2 1418.1,969.7 1465.1,990.4 1515.9,1021.4 1531,1006.4 "/>
<polygon class="st4" points="1560.1,1352.5 1567.6,1375.1 1588.3,1363.8 1595.9,1380.8 1585.5,1403.3 1595.9,1420.3 1619.8,1424 
	1615.6,1441.9 1589.9,1469.5 1589.9,1486.1 1560.1,1503.1 1546.9,1517.2 1553.5,1530.7 1531.9,1550.1 1531.9,1575.5 1517.8,1598.1 
	1473.6,1598.1 1463.2,1627.2 1446.3,1627.2 1455.1,1700.6 1486.7,1706.2 1482.5,1717.5 1446.3,1717.5 1411.5,1695 1404,1709.1 
	1425.6,1723.2 1433.1,1758 1440.6,1806.9 1398.3,1859.6 1379.5,1865.2 1370.1,1911.3 1334.3,1911.3 1328.7,1881.7 1293.4,1838.4 
	1273.2,1836.5 1264.7,1826.6 1266.6,1793.7 1292,1769.3 1310.8,1780.6 1324,1759.9 1304.4,1748.6 1280.7,1715.6 1276,1688.4 
	1297.7,1675.2 1297.7,1636.6 1282.6,1622.5 1280.7,1602.8 1297.7,1588.7 1306.8,1570.2 1306.8,1546.9 1319.3,1541.9 1318,1516.2 
	1341.2,1493.6 1345.6,1474.8 1367.6,1482.4 1393.9,1462.6 1407.1,1424.7 1427.2,1418.4 1432.2,1396.4 1395.8,1377.6 1381.4,1385.2 
	1377.6,1375.7 1384.5,1357.6 1375.7,1346.9 1383.9,1341.9 1402.1,1353.8 1455.4,1353.8 1479.8,1336.9 1493.6,1345 1511.8,1345 
	1529.4,1325.6 "/>
<polygon class="st2" points="1589.9,1469.5 1619.8,1483.3 1639.1,1476.4 1679.6,1476.4 1684.3,1490.8 1677.7,1504 1693.7,1510.6 
	1709.7,1496.9 1737,1503.1 1740.7,1510.6 1756.7,1510.6 1756.7,1469.5 1766.1,1457.9 1824.4,1484.2 1865.8,1510.6 1891.5,1540.1 
	1877.1,1549.1 1865.4,1549.1 1837.6,1574.1 1836.7,1592.4 1851.3,1609.8 1852.7,1638.5 1798.1,1700.1 1735.1,1723.2 1728.8,1705 
	1700,1720 1689.9,1740.7 1696.8,1750.8 1664.8,1785.3 1652,1780.6 1634.7,1793.1 1634.7,1804.1 1626,1808.1 1626,1817.2 
	1609.7,1822.3 1601.2,1813.5 1588.3,1816.3 1583.3,1804.4 1575.2,1802.8 1562.6,1785.9 1538.2,1797.8 1543.8,1812.8 1521.9,1819.7 
	1509.9,1832.9 1516.8,1858 1494.3,1854.9 1476.7,1869.3 1467.3,1845.5 1455.4,1841.7 1449.1,1849.2 1449.1,1888.1 1437.2,1895 
	1428.4,1888.1 1370.1,1911.3 1379.5,1865.2 1398.3,1859.6 1440.6,1806.9 1433.1,1758 1425.6,1723.2 1404,1709.1 1411.5,1695 
	1446.3,1717.5 1482.5,1717.5 1486.7,1706.2 1455.1,1700.6 1446.3,1627.2 1463.2,1627.2 1473.6,1598.1 1517.8,1598.1 1531.9,1575.5 
	1531.9,1550.1 1553.5,1530.7 1546.9,1517.2 1560.1,1503.1 1589.9,1486.1 "/>
<polygon class="st7" points="1923.2,1081.6 1928.9,1095.4 1898.8,1127.4 1898.8,1140.6 1917.6,1158.1 1920.1,1175.1 1898.8,1201.4 
	1886.2,1193.3 1848.6,1223.4 1845.5,1262.2 1800.9,1267.9 1793.4,1291.1 1756.4,1254.1 1728.8,1251.6 1721.3,1270.4 1681.8,1291.1 
	1661.1,1294.2 1650.4,1281.7 1628.8,1299.2 1595.9,1279.2 1537.5,1283.9 1536.6,1262.2 1521.5,1236.8 1525.3,1208.6 1562,1197.3 
	1585.5,1172.9 1625,1172.9 1628.8,1160.6 1593,1144.7 1578,1126.8 1593,1119.3 1593,1109.8 1562,1099.5 1586.5,1089.5 
	1610.9,1089.5 1607.1,1075 1579.9,1060.9 1562,1021.4 1578,1010.1 1630.7,1021.4 1630.7,1044.9 1681.5,1074.1 1708.7,1061.9 
	1725.7,1064.7 1733.2,1081.6 1799,1096.7 1824.4,1087.3 1855.5,1104.2 1865.8,1089.2 1909.1,1095.7 "/>
<polygon class="st1" points="1898.8,1201.4 1910.7,1232.1 1904.7,1285.4 1881.2,1316.8 1862.4,1313.7 1862.4,1329.3 1853,1338 
	1831.7,1329.3 1824.1,1348.8 1789.6,1360.7 1784.6,1375.7 1747.6,1370.1 1740.7,1391.4 1749.5,1404.6 1774.6,1415.9 1800.9,1415.9 
	1797.8,1441 1829.8,1457.9 1841.7,1479.2 1824.4,1484.2 1766.1,1457.9 1756.7,1469.5 1756.7,1510.6 1740.7,1510.6 1737,1503.1 
	1709.7,1496.9 1693.7,1510.6 1677.7,1504 1684.3,1490.8 1679.6,1476.4 1639.1,1476.4 1619.8,1483.3 1589.9,1469.5 1615.6,1441.9 
	1619.8,1424 1595.9,1420.3 1585.5,1403.3 1595.9,1380.8 1588.3,1363.8 1567.6,1375.1 1560.1,1352.5 1529.4,1325.6 1537.5,1283.9 
	1595.9,1279.2 1628.8,1299.2 1650.4,1281.7 1661.1,1294.2 1681.8,1291.1 1721.3,1270.4 1728.8,1251.6 1756.4,1254.1 1793.4,1291.1 
	1800.9,1267.9 1845.5,1262.2 1848.6,1223.4 1886.2,1193.3 "/>
<polygon class="st2" points="1905.3,1023.3 1973.1,1017.7 1986.2,997.9 1972.1,980 1986.2,955.6 1962.7,931.1 1923.2,956.5 "/>
<polygon class="st5" points="2056.8,1098.6 2063.4,1056.2 2027.6,1041.2 2001.3,1048.7 1973.1,1017.7 1905.3,1023.3 1923.2,1053.4 
	1923.2,1081.6 1928.9,1095.4 1898.8,1127.4 1898.8,1140.6 1917.6,1158.1 1920.1,1175.1 1898.8,1201.4 1910.7,1232.1 1904.7,1285.4 
	1881.2,1316.8 1862.4,1313.7 1862.4,1329.3 1853,1338 1831.7,1329.3 1824.1,1348.8 1789.6,1360.7 1784.6,1375.7 1747.6,1370.1 
	1740.7,1391.4 1749.5,1404.6 1774.6,1415.9 1800.9,1415.9 1797.8,1441 1829.8,1457.9 1841.7,1479.2 1824.4,1484.2 1865.8,1510.6 
	1891.5,1540.1 1926.7,1527.2 1936.7,1505.2 1940.5,1484.2 1954.9,1486.4 1954.3,1502.1 1946.1,1536.6 1960.5,1542.6 1967.7,1536 
	1980.6,1542.6 1985,1518.4 1993.5,1516.5 2004.7,1539.1 2027,1530.7 2025.7,1479.2 2013.5,1468.2 2014.8,1415.9 2003.5,1405.8 
	2007.9,1383.3 1987.8,1380.8 1991.6,1356.9 1972.1,1355.7 1969,1331.2 1986.6,1316.8 1981.5,1281.7 1950.2,1281.7 1928.9,1262.2 
	1934.5,1230.9 1953.3,1224.6 1955.2,1205.2 1988.4,1205.2 1998.5,1188.2 1986.6,1170.7 1955.8,1168.8 1934.5,1149.4 1927,1128.7 
	1945.8,1096.1 1957.7,1081 1970.2,1097.9 1996.6,1097.3 2019.2,1118.6 2044.2,1118.6 2046.8,1098.6 "/>
<polygon class="st4" points="2066.8,1121.1 2126.4,1121.1 2189.1,1133.1 2218,1101.7 2263.1,1101.7 2263.1,1133.1 2298.2,1133.1 
	2322.1,1166.9 2289.5,1191.4 2271.3,1187.6 2255.6,1178.2 2219.8,1188.9 2184.1,1181.3 2164.7,1190.7 2118.2,1194.5 2066.2,1180.7 
	2071.8,1156.3 "/>
<polygon class="st2" points="2251.5,1026.1 2296.7,1003.6 2325.8,1017.7 2378.5,1010.1 2422.7,945.2 2498.9,902.9 2525.2,902.9 
	2531.8,887.8 2561.9,887.8 2568.5,904.8 2545,920.8 2557.2,936.8 2526.2,977.2 2501.7,987.6 2453.8,1017.7 2410,1069.4 2410,1101.7 
	2388.9,1108.9 2364.4,1134.3 2371,1163.5 2358.7,1206.7 2347.5,1250.9 2322.1,1250.9 2312.7,1280.1 2290.1,1280.1 2271.9,1254.7 
	2273.1,1237.2 2296.4,1205.2 2289.5,1191.4 2322.1,1166.9 2298.2,1133.1 2263.1,1133.1 2263.1,1101.7 2218,1101.7 2189.1,1133.1 
	2126.4,1121.1 2066.8,1121.1 2056.8,1098.6 2063.4,1056.2 2112.3,1030.8 2171.6,1041.2 "/>
<polygon class="st3" points="2508.9,1014.5 2501.7,987.6 2526.2,977.2 2557.2,936.8 2545,920.8 2568.5,904.8 2561.9,887.8 
	2531.8,887.8 2525.2,902.9 2498.9,902.9 2422.7,945.2 2378.5,1010.1 2325.8,1017.7 2296.7,1003.6 2251.5,1026.1 2241.2,1002.6 
	2243,970.6 2204.5,963.1 2197.9,934.9 2230.8,945.2 2244.9,929.2 2264.4,936.8 2287.6,920.5 2287.6,900.4 2328.3,882.2 
	2332.7,852.1 2384.1,845.2 2399.8,798.2 2436.2,776.8 2451.2,789.4 2500.2,796.3 2507.1,773.7 2552.2,749.9 2572.3,765.6 
	2558.5,782.5 2565.4,805.1 2579.2,784.4 2591.7,786.9 2599.9,809.5 2576.7,847.1 2587.3,852.1 2604.9,840.8 2668.2,852.1 
	2673.2,878.4 2659.5,885.3 2639.4,914.2 2663.2,953.1 2654.4,960.6 2637.5,951.2 2631.2,936.1 2613,938.6 2572.3,958.1 
	2552.2,986.9 2525.2,1015.2 "/>
<polygon class="st5" points="2371,1163.5 2391.7,1163.5 2407.7,1131.5 2439.6,1139.9 2473.2,1138.7 2496.4,1114.2 2510.8,1076.6 
	2497,1039 2508.9,1014.5 2501.7,987.6 2453.8,1017.7 2410,1069.4 2410,1101.7 2388.9,1108.9 2364.4,1134.3 "/>
<polygon class="st1" points="2347.5,1250.9 2347.5,1280.1 2374.1,1276 2381.6,1267.3 2392.9,1284.2 2413.6,1278.5 2447.5,1287.9 
	2457.5,1268.5 2463.8,1224 2485.7,1185.1 2485.7,1165.7 2471.3,1158.1 2473.2,1138.7 2439.6,1139.9 2407.7,1131.5 2391.7,1163.5 
	2371,1163.5 "/>
<polygon class="st5" points="2290.1,1280.1 2289.5,1311.8 2260,1318.7 2263.1,1338.1 2252.5,1353.8 2258.7,1375.7 2244.3,1394.6 
	2231.1,1386.4 2217.3,1385.2 2206,1350.7 2191.6,1328.1 2209.8,1286.1 2253.1,1276 2253.7,1258.5 2271.9,1254.7 "/>
<polygon class="st8" points="2290.1,1280.1 2312.7,1280.1 2322.1,1250.9 2347.5,1250.9 2347.5,1280.1 2374.1,1276 2386.7,1325.6 
	2382.3,1343.8 2386.7,1358.2 2378.5,1370.1 2360.9,1375.7 2367.2,1411.5 2376.6,1432.8 2379.8,1452.3 2367.2,1452.3 2365.3,1470.4 
	2352.8,1470.4 2349.7,1458.5 2340.9,1458.5 2339.6,1470.4 2327.7,1475.5 2318.9,1409 2303.9,1387 2297.6,1357.6 2304.5,1348.2 
	2290.7,1329.3 2289.5,1311.8 "/>
<polygon class="st3" points="2435.6,2255.6 2421.8,2268.8 2421.8,2318.3 2438.7,2313.3 2447.5,2276.3 "/>
<path class="st3" d="M2434.6,2321.4c-1.6,0-12.9,6.3-12.9,6.3l-6.3,36.4l6.3,11.3h12.9l8.5-20.7v-23.8L2434.6,2321.4z"/>
<polygon class="st3" points="2421.8,2386.7 2415.5,2396.1 2408.6,2421.2 2415.2,2445 2421.8,2454.4 2431.8,2450.6 2426.2,2415.5 
	2434.6,2386.7 "/>
<polygon class="st3" points="2415.5,2512.7 2421.8,2527.1 2421.8,2548.5 2408.6,2551 2408.6,2536.5 2400.5,2526.5 "/>
<polygon class="st3" points="2447.5,2665.1 2461.3,2668.2 2461.3,2678.9 2450.6,2678.9 "/>
<polygon class="st3" points="2522.1,2776.1 2529.6,2793 2522.1,2795.5 2512.7,2785.8 "/>
<polygon class="st3" points="2552.2,2845.7 2561.6,2838.2 2556.9,2822.5 2547.2,2834.1 "/>
<polygon class="st3" points="2573.5,2852 2561.6,2854.5 2554.4,2872.7 2578.6,2897.8 2586.1,2890.2 2586.1,2867.7 "/>
<polygon class="st3" points="2487.6,2749.8 2491.4,2762.9 2498.9,2768.6 2507.1,2759.2 2500.8,2754.2 2497.3,2755.4 2493.3,2749.8 
	"/>
</svg>
