<svg id="Layer_2" data-name="Layer 2" xmlns="http://www.w3.org/2000/svg" viewBox="0 0 2258.24 807.32"><defs><style>.cls-1{fill:#5db602;}.cls-2{fill:#81d01d;}.cls-3{fill:#774d34;}.cls-4{fill:#b6c7f5;}.cls-5{fill:#e3e2e3;}.cls-6{fill:#617fc3;}.cls-7{fill:#7d97d5;}.cls-8{fill:#bababa;}.cls-9{fill:#c9c9c9;}.cls-10{fill:#3e403e;}.cls-11{fill:#3f687a;}.cls-12{fill:#f5c987;}.cls-13{fill:#c4773d;}.cls-14{fill:#8a683f;}.cls-15{fill:#da8751;}.cls-16{fill:#af7938;}.cls-17{fill:#ce9851;}.cls-18{fill:#ad803a;}.cls-19{fill:#384b4a;}.cls-20{fill:#2d373a;}.cls-21{fill:#b14135;}.cls-22{fill:#a03d2f;}.cls-23{fill:#ffa750;}.cls-24{fill:#e0e0e0;}.cls-25{fill:#3a5866;}.cls-26{fill:#ff7c10;}.cls-27{fill:#ff902c;}.cls-28{fill:#36c7ca;}.cls-29{fill:#828286;}.cls-30{fill:#394c49;}.cls-31{fill:#6f6f72;}.cls-32{fill:#5c5c60;}.cls-33{fill:#4e3c44;}.cls-34{fill:#35282e;}.cls-35{fill:#ffdcae;}</style></defs><path class="cls-1" d="M2017.4,606.65c42.7-45.66,41.41-116,28.63-173.23-15.62-69.91-51-134.9-94.64-191.16-9.06-11.67-20.36-24.11-35.13-24.46-16.74-.41-29.26,14.7-38.64,28.58-36.78,54.43-69.42,111.56-87,175.21-12,43.35-16,90.27-1.8,133s49.14,80.12,93.3,88.64C1926.77,651.81,1985.28,641,2017.4,606.65Z" transform="translate(-102.57 -154.57)"/><path class="cls-2" d="M1984.55,513.15c28.76-30.75,27.88-78.15,19.28-116.66-10.52-47.08-34.32-90.85-63.73-128.73-6.1-7.86-13.71-16.23-23.66-16.48-11.28-.27-19.71,9.91-26,19.25-24.77,36.66-46.75,75.13-58.61,118-8.07,29.19-10.78,60.79-1.21,89.53s33.09,54,62.83,59.7C1923.51,543.56,1962.92,536.28,1984.55,513.15Z" transform="translate(-102.57 -154.57)"/><path class="cls-3" d="M2003.72,490c-1.13,15.29-10.45,29.19-22.7,38.39s-27.21,14.2-42.25,17.16a92.4,92.4,0,0,1-15.6,1.94l-6.37-216.86-3.66,64.13c-15.92,0-31.65-9.43-38.86-23.7,1.9,8.73,7.45,16.37,14.3,22.11s15,9.77,23.19,13.28l.69.29-23.55,412.8h42.24L1924,575.85a148.63,148.63,0,0,0,41.18-19.2c11.24-7.53,21.55-16.74,28.82-28.14S2005.35,503.37,2003.72,490Z" transform="translate(-102.57 -154.57)"/><path class="cls-1" d="M2274.41,661.38c31.73-33.92,30.76-86.21,21.27-128.69-11.6-51.93-37.86-100.21-70.3-142-6.73-8.67-15.12-17.91-26.1-18.17-12.44-.31-21.73,10.92-28.7,21.23-27.32,40.43-51.57,82.87-64.65,130.16-8.91,32.2-11.89,67.05-1.34,98.76s36.5,59.52,69.31,65.85C2207.09,694.92,2250.55,686.89,2274.41,661.38Z" transform="translate(-102.57 -154.57)"/><path class="cls-2" d="M2250,591.92c21.36-22.84,20.71-58,14.32-86.66-7.81-35-25.49-67.48-47.34-95.63-4.53-5.84-10.19-12.06-17.58-12.24-8.37-.2-14.63,7.36-19.33,14.3-18.4,27.23-34.73,55.81-43.53,87.66-6,21.68-8,45.15-.9,66.5s24.58,40.09,46.67,44.35C2204.67,614.51,2233.94,609.1,2250,591.92Z" transform="translate(-102.57 -154.57)"/><path class="cls-3" d="M2264.25,574.69c-.84,11.35-7.76,21.68-16.86,28.52S2227.18,613.75,2216,616a69.81,69.81,0,0,1-11.59,1.44l-4.73-161.1L2197,503.94c-11.83,0-23.52-7-28.87-17.61,1.41,6.49,5.53,12.16,10.62,16.43s11.12,7.25,17.23,9.86l.51.22L2179,819.49h31.38l-5.31-181a110.17,110.17,0,0,0,30.59-14.26c8.35-5.59,16-12.44,21.41-20.91S2265.46,584.66,2264.25,574.69Z" transform="translate(-102.57 -154.57)"/><polygon class="cls-4" points="1598.13 678.99 51.97 678.99 51.97 183.12 825.05 33.9 1598.13 183.12 1598.13 678.99"/><polygon class="cls-5" points="825.05 0 0 159.25 0 193.15 825.05 33.9 1650.1 193.15 1650.1 159.25 825.05 0"/><rect class="cls-6" x="51.97" y="678.99" width="1546.16" height="18.94"/><rect class="cls-7" x="151.84" y="366.78" width="608.36" height="312.22"/><rect class="cls-5" x="151.84" y="344.97" width="608.36" height="21.81"/><rect class="cls-8" x="151.84" y="344.97" width="608.36" height="4.73"/><rect class="cls-5" x="151.84" y="322.19" width="608.36" height="21.81"/><rect class="cls-8" x="151.84" y="323.16" width="608.36" height="4.73"/><rect class="cls-5" x="151.84" y="300.38" width="608.36" height="21.81"/><rect class="cls-9" x="151.84" y="282.98" width="608.36" height="18.37"/><rect class="cls-5" x="132.9" y="250.27" width="646.24" height="32.71"/><rect class="cls-8" x="151.84" y="301.35" width="608.36" height="4.73"/><rect class="cls-10" x="159.87" y="366.78" width="592.29" height="312.22"/><rect class="cls-7" x="992.48" y="521.35" width="608.36" height="312.22" transform="translate(2490.74 1200.34) rotate(180)"/><rect class="cls-5" x="992.48" y="499.54" width="608.36" height="21.81" transform="translate(2490.74 866.31) rotate(180)"/><rect class="cls-8" x="992.48" y="499.54" width="608.36" height="4.73" transform="translate(2490.74 849.24) rotate(180)"/><rect class="cls-5" x="992.48" y="477.73" width="608.36" height="21.81" transform="translate(2490.74 822.69) rotate(180)"/><rect class="cls-8" x="992.48" y="477.73" width="608.36" height="4.73" transform="translate(2490.74 805.62) rotate(180)"/><rect class="cls-5" x="992.48" y="455.92" width="608.36" height="21.81" transform="translate(2490.74 779.08) rotate(180)"/><rect class="cls-9" x="992.48" y="437.55" width="608.36" height="18.37" transform="translate(2490.74 738.9) rotate(180)"/><rect class="cls-5" x="973.54" y="404.84" width="646.24" height="32.71" transform="translate(2490.74 687.82) rotate(180)"/><rect class="cls-8" x="992.48" y="455.92" width="608.36" height="4.73" transform="translate(2490.74 762) rotate(180)"/><rect class="cls-10" x="1000.51" y="521.35" width="592.29" height="312.22" transform="translate(2490.74 1200.34) rotate(180)"/><rect class="cls-5" x="452.57" y="126.3" width="744.96" height="105.6"/><rect class="cls-11" x="1172.44" y="448.51" width="62.66" height="48.29"/><rect class="cls-11" x="1172.44" y="501.98" width="62.66" height="48.29"/><rect class="cls-11" x="1245.52" y="448.51" width="62.66" height="48.29"/><rect class="cls-11" x="1245.52" y="501.98" width="62.66" height="48.29"/><rect class="cls-11" x="1318.6" y="448.51" width="62.66" height="48.29"/><rect class="cls-11" x="1318.6" y="501.98" width="62.66" height="48.29"/><rect class="cls-11" x="1391.68" y="448.51" width="62.66" height="48.29"/><rect class="cls-11" x="1391.68" y="501.98" width="62.66" height="48.29"/><rect class="cls-11" x="1135.9" y="550.27" width="62.66" height="56.75"/><rect class="cls-11" x="1135.9" y="613.09" width="62.66" height="56.75"/><rect class="cls-11" x="1208.98" y="550.27" width="62.66" height="56.75"/><rect class="cls-11" x="1208.98" y="613.09" width="62.66" height="56.75"/><rect class="cls-11" x="1282.06" y="550.27" width="62.66" height="56.75"/><rect class="cls-11" x="1282.06" y="613.09" width="62.66" height="56.75"/><rect class="cls-11" x="1355.14" y="550.27" width="62.66" height="56.75"/><rect class="cls-11" x="1355.14" y="613.09" width="62.66" height="56.75"/><rect class="cls-11" x="1427.57" y="550.27" width="62.66" height="56.75"/><rect class="cls-11" x="1427.57" y="613.09" width="62.66" height="56.75"/><rect class="cls-11" x="1122.3" y="669.84" width="367.93" height="9.15"/><rect class="cls-11" x="492.61" y="386.07" width="79.64" height="61.37"/><rect class="cls-11" x="492.61" y="454.02" width="79.64" height="61.37"/><rect class="cls-11" x="399.73" y="386.07" width="79.64" height="61.37"/><rect class="cls-11" x="399.73" y="454.02" width="79.64" height="61.37"/><rect class="cls-11" x="306.86" y="386.07" width="79.64" height="61.37"/><rect class="cls-11" x="306.86" y="454.02" width="79.64" height="61.37"/><rect class="cls-11" x="213.98" y="386.07" width="79.64" height="61.37"/><rect class="cls-11" x="213.98" y="454.02" width="79.64" height="61.37"/><rect class="cls-11" x="539.05" y="515.39" width="79.64" height="72.12"/><rect class="cls-11" x="539.05" y="595.24" width="79.64" height="72.12"/><rect class="cls-11" x="446.17" y="515.39" width="79.64" height="72.12"/><rect class="cls-11" x="446.17" y="595.24" width="79.64" height="72.12"/><rect class="cls-11" x="353.29" y="515.39" width="79.64" height="72.12"/><rect class="cls-11" x="353.29" y="595.24" width="79.64" height="72.12"/><rect class="cls-11" x="260.42" y="515.39" width="79.64" height="72.12"/><rect class="cls-11" x="260.42" y="595.24" width="79.64" height="72.12"/><rect class="cls-11" x="168.36" y="515.39" width="79.64" height="72.12"/><rect class="cls-11" x="168.36" y="595.24" width="79.64" height="72.12"/><rect class="cls-11" x="168.36" y="667.36" width="467.62" height="11.63"/><rect class="cls-12" x="249.78" y="472.2" width="228.16" height="170.38"/><rect class="cls-13" x="249.78" y="554.28" width="228.16" height="3.72"/><rect class="cls-13" x="422.65" y="665.95" width="82.08" height="3.72" transform="translate(1028.92 49.55) rotate(90)"/><rect class="cls-13" x="423.26" y="753" width="84.58" height="3.72" transform="translate(1117.84 134.74) rotate(90)"/><rect class="cls-5" x="327.74" y="481.41" width="3.16" height="12.94"/><rect class="cls-5" x="331.71" y="481.41" width="1.29" height="12.94"/><rect class="cls-5" x="333.77" y="481.41" width="2.09" height="12.94"/><rect class="cls-5" x="348.55" y="481.41" width="2.09" height="12.94"/><rect class="cls-5" x="336.42" y="481.41" width="1.05" height="12.94"/><rect class="cls-5" x="338.02" y="481.41" width="1.05" height="12.94"/><rect class="cls-5" x="340.24" y="481.41" width="1.29" height="12.94"/><rect class="cls-5" x="342.3" y="481.41" width="2.09" height="12.94"/><rect class="cls-5" x="344.94" y="481.41" width="1.05" height="12.94"/><rect class="cls-5" x="346.54" y="481.41" width="1.05" height="12.94"/><rect class="cls-14" x="319.07" y="536.83" width="34.55" height="10.14"/><rect class="cls-5" x="443.29" y="481.41" width="3.16" height="12.94"/><rect class="cls-5" x="447.26" y="481.41" width="1.29" height="12.94"/><rect class="cls-5" x="449.32" y="481.41" width="2.09" height="12.94"/><rect class="cls-5" x="464.1" y="481.41" width="2.09" height="12.94"/><rect class="cls-5" x="451.97" y="481.41" width="1.05" height="12.94"/><rect class="cls-5" x="453.57" y="481.41" width="1.05" height="12.94"/><rect class="cls-5" x="455.79" y="481.41" width="1.29" height="12.94"/><rect class="cls-5" x="457.85" y="481.41" width="2.09" height="12.94"/><rect class="cls-5" x="460.49" y="481.41" width="1.05" height="12.94"/><rect class="cls-5" x="462.09" y="481.41" width="1.05" height="12.94"/><rect class="cls-14" x="434.62" y="536.83" width="34.55" height="10.14"/><rect class="cls-12" x="401.4" y="390.56" width="108.79" height="81.64"/><rect class="cls-15" x="612.76" y="545.13" width="16.47" height="81.64" transform="translate(1139.4 1017.33) rotate(180)"/><rect class="cls-12" x="526.65" y="390.56" width="108.79" height="81.64"/><rect class="cls-15" x="738.01" y="545.13" width="16.47" height="81.64" transform="translate(1389.91 1017.33) rotate(180)"/><rect class="cls-5" x="477.84" y="398.59" width="3.16" height="12.94"/><rect class="cls-5" x="481.81" y="398.59" width="1.29" height="12.94"/><rect class="cls-5" x="483.87" y="398.59" width="2.09" height="12.94"/><rect class="cls-5" x="498.64" y="398.59" width="2.09" height="12.94"/><rect class="cls-5" x="486.52" y="398.59" width="1.05" height="12.94"/><rect class="cls-5" x="488.11" y="398.59" width="1.05" height="12.94"/><rect class="cls-5" x="490.34" y="398.59" width="1.29" height="12.94"/><rect class="cls-5" x="492.4" y="398.59" width="2.09" height="12.94"/><rect class="cls-5" x="495.04" y="398.59" width="1.05" height="12.94"/><rect class="cls-5" x="496.64" y="398.59" width="1.05" height="12.94"/><rect class="cls-14" x="469.17" y="454.02" width="34.55" height="10.14"/><rect class="cls-5" x="327.74" y="566.06" width="3.16" height="12.94"/><rect class="cls-5" x="331.71" y="566.06" width="1.29" height="12.94"/><rect class="cls-5" x="333.77" y="566.06" width="2.09" height="12.94"/><rect class="cls-5" x="348.55" y="566.06" width="2.09" height="12.94"/><rect class="cls-5" x="336.42" y="566.06" width="1.05" height="12.94"/><rect class="cls-5" x="338.02" y="566.06" width="1.05" height="12.94"/><rect class="cls-5" x="340.24" y="566.06" width="1.29" height="12.94"/><rect class="cls-5" x="342.3" y="566.06" width="2.09" height="12.94"/><rect class="cls-5" x="344.94" y="566.06" width="1.05" height="12.94"/><rect class="cls-5" x="346.54" y="566.06" width="1.05" height="12.94"/><rect class="cls-14" x="319.07" y="621.49" width="34.55" height="10.14"/><rect class="cls-5" x="443.29" y="566.06" width="3.16" height="12.94"/><rect class="cls-5" x="447.26" y="566.06" width="1.29" height="12.94"/><rect class="cls-5" x="449.32" y="566.06" width="2.09" height="12.94"/><rect class="cls-5" x="464.1" y="566.06" width="2.09" height="12.94"/><rect class="cls-5" x="451.97" y="566.06" width="1.05" height="12.94"/><rect class="cls-5" x="453.57" y="566.06" width="1.05" height="12.94"/><rect class="cls-5" x="455.79" y="566.06" width="1.29" height="12.94"/><rect class="cls-5" x="457.85" y="566.06" width="2.09" height="12.94"/><rect class="cls-5" x="460.49" y="566.06" width="1.05" height="12.94"/><rect class="cls-5" x="462.09" y="566.06" width="1.05" height="12.94"/><rect class="cls-14" x="434.62" y="621.49" width="34.55" height="10.14"/><rect class="cls-12" x="490.19" y="472.2" width="228.16" height="170.38"/><rect class="cls-13" x="490.19" y="554.28" width="228.16" height="3.72"/><rect class="cls-13" x="663.06" y="665.95" width="82.08" height="3.72" transform="translate(1269.33 -190.86) rotate(90)"/><rect class="cls-13" x="663.67" y="753" width="84.58" height="3.72" transform="translate(1358.25 -105.67) rotate(90)"/><rect class="cls-5" x="568.15" y="481.41" width="3.16" height="12.94"/><rect class="cls-5" x="572.12" y="481.41" width="1.29" height="12.94"/><rect class="cls-5" x="574.18" y="481.41" width="2.09" height="12.94"/><rect class="cls-5" x="588.96" y="481.41" width="2.09" height="12.94"/><rect class="cls-5" x="576.83" y="481.41" width="1.05" height="12.94"/><rect class="cls-5" x="578.43" y="481.41" width="1.05" height="12.94"/><rect class="cls-5" x="580.65" y="481.41" width="1.29" height="12.94"/><rect class="cls-5" x="582.71" y="481.41" width="2.09" height="12.94"/><rect class="cls-5" x="585.35" y="481.41" width="1.05" height="12.94"/><rect class="cls-5" x="586.95" y="481.41" width="1.05" height="12.94"/><rect class="cls-14" x="559.48" y="536.83" width="34.55" height="10.14"/><rect class="cls-5" x="683.7" y="481.41" width="3.16" height="12.94"/><rect class="cls-5" x="687.67" y="481.41" width="1.29" height="12.94"/><rect class="cls-5" x="689.73" y="481.41" width="2.09" height="12.94"/><rect class="cls-5" x="704.51" y="481.41" width="2.09" height="12.94"/><rect class="cls-5" x="692.38" y="481.41" width="1.05" height="12.94"/><rect class="cls-5" x="693.98" y="481.41" width="1.05" height="12.94"/><rect class="cls-5" x="696.2" y="481.41" width="1.29" height="12.94"/><rect class="cls-5" x="698.26" y="481.41" width="2.09" height="12.94"/><rect class="cls-5" x="700.9" y="481.41" width="1.05" height="12.94"/><rect class="cls-5" x="702.5" y="481.41" width="1.05" height="12.94"/><rect class="cls-14" x="675.03" y="536.83" width="34.55" height="10.14"/><rect class="cls-5" x="568.15" y="566.06" width="3.16" height="12.94"/><rect class="cls-5" x="572.12" y="566.06" width="1.29" height="12.94"/><rect class="cls-5" x="574.18" y="566.06" width="2.09" height="12.94"/><rect class="cls-5" x="588.96" y="566.06" width="2.09" height="12.94"/><rect class="cls-5" x="576.83" y="566.06" width="1.05" height="12.94"/><rect class="cls-5" x="578.43" y="566.06" width="1.05" height="12.94"/><rect class="cls-5" x="580.65" y="566.06" width="1.29" height="12.94"/><rect class="cls-5" x="582.71" y="566.06" width="2.09" height="12.94"/><rect class="cls-5" x="585.35" y="566.06" width="1.05" height="12.94"/><rect class="cls-5" x="586.95" y="566.06" width="1.05" height="12.94"/><rect class="cls-14" x="559.48" y="621.49" width="34.55" height="10.14"/><rect class="cls-5" x="683.7" y="566.06" width="3.16" height="12.94"/><rect class="cls-5" x="687.67" y="566.06" width="1.29" height="12.94"/><rect class="cls-5" x="689.73" y="566.06" width="2.09" height="12.94"/><rect class="cls-5" x="704.51" y="566.06" width="2.09" height="12.94"/><rect class="cls-5" x="692.38" y="566.06" width="1.05" height="12.94"/><rect class="cls-5" x="693.98" y="566.06" width="1.05" height="12.94"/><rect class="cls-5" x="696.2" y="566.06" width="1.29" height="12.94"/><rect class="cls-5" x="698.26" y="566.06" width="2.09" height="12.94"/><rect class="cls-5" x="700.9" y="566.06" width="1.05" height="12.94"/><rect class="cls-5" x="702.5" y="566.06" width="1.05" height="12.94"/><rect class="cls-14" x="675.03" y="621.49" width="34.55" height="10.14"/><rect class="cls-15" x="477.94" y="472.2" width="12.25" height="170.38"/><rect class="cls-15" x="718.35" y="472.2" width="33.81" height="170.38"/><rect class="cls-16" x="729.23" y="642.58" width="22.93" height="36.41"/><rect class="cls-17" x="239.98" y="642.58" width="489.25" height="36.41"/><rect class="cls-18" x="239.98" y="649.34" width="489.25" height="2.79"/><rect class="cls-18" x="239.98" y="669.43" width="489.25" height="2.79"/><rect class="cls-10" x="267.91" y="647.82" width="79.39" height="24.4"/><rect class="cls-10" x="376.11" y="647.82" width="79.39" height="24.4"/><rect class="cls-10" x="511.65" y="647.82" width="79.39" height="24.4"/><rect class="cls-10" x="619.85" y="647.82" width="79.39" height="24.4"/><rect class="cls-13" x="249.78" y="639.69" width="228.16" height="2.89"/><rect class="cls-5" x="603.09" y="398.59" width="3.16" height="12.94"/><rect class="cls-5" x="607.06" y="398.59" width="1.29" height="12.94"/><rect class="cls-5" x="609.12" y="398.59" width="2.09" height="12.94"/><rect class="cls-5" x="623.9" y="398.59" width="2.09" height="12.94"/><rect class="cls-5" x="611.77" y="398.59" width="1.05" height="12.94"/><rect class="cls-5" x="613.37" y="398.59" width="1.05" height="12.94"/><rect class="cls-5" x="615.59" y="398.59" width="1.29" height="12.94"/><rect class="cls-5" x="617.65" y="398.59" width="2.09" height="12.94"/><rect class="cls-5" x="620.29" y="398.59" width="1.05" height="12.94"/><rect class="cls-5" x="621.89" y="398.59" width="1.05" height="12.94"/><rect class="cls-14" x="594.42" y="454.02" width="34.55" height="10.14"/><rect class="cls-12" x="906.7" y="494.97" width="203.03" height="151.62"/><rect class="cls-13" x="906.7" y="568.01" width="203.03" height="3.31"/><rect class="cls-13" x="1071.83" y="684.4" width="73.04" height="3.31" transform="translate(1691.84 -576.86) rotate(90)"/><rect class="cls-13" x="1072.37" y="761.87" width="75.27" height="3.31" transform="translate(1770.96 -501.05) rotate(90)"/><rect class="cls-5" x="976.08" y="503.17" width="2.81" height="11.51"/><rect class="cls-5" x="979.61" y="503.17" width="1.14" height="11.51"/><rect class="cls-5" x="981.44" y="503.17" width="1.86" height="11.51"/><rect class="cls-5" x="994.59" y="503.17" width="1.86" height="11.51"/><rect class="cls-5" x="983.8" y="503.17" width="0.93" height="11.51"/><rect class="cls-5" x="985.22" y="503.17" width="0.93" height="11.51"/><rect class="cls-5" x="987.2" y="503.17" width="1.14" height="11.51"/><rect class="cls-5" x="989.03" y="503.17" width="1.86" height="11.51"/><rect class="cls-5" x="991.39" y="503.17" width="0.93" height="11.51"/><rect class="cls-5" x="992.81" y="503.17" width="0.93" height="11.51"/><rect class="cls-14" x="968.36" y="552.49" width="30.74" height="9.03"/><rect class="cls-5" x="1078.91" y="503.17" width="2.81" height="11.51"/><rect class="cls-5" x="1082.44" y="503.17" width="1.14" height="11.51"/><rect class="cls-5" x="1084.27" y="503.17" width="1.86" height="11.51"/><rect class="cls-5" x="1097.42" y="503.17" width="1.86" height="11.51"/><rect class="cls-5" x="1086.63" y="503.17" width="0.93" height="11.51"/><rect class="cls-5" x="1088.05" y="503.17" width="0.93" height="11.51"/><rect class="cls-5" x="1090.03" y="503.17" width="1.14" height="11.51"/><rect class="cls-5" x="1091.86" y="503.17" width="1.86" height="11.51"/><rect class="cls-5" x="1094.21" y="503.17" width="0.93" height="11.51"/><rect class="cls-5" x="1095.64" y="503.17" width="0.93" height="11.51"/><rect class="cls-14" x="1071.19" y="552.49" width="30.74" height="9.03"/><rect class="cls-12" x="906.7" y="422.32" width="96.81" height="72.65"/><rect class="cls-15" x="1106.08" y="576.89" width="14.65" height="72.65" transform="translate(2124.24 1071.86) rotate(180)"/><rect class="cls-12" x="1018.16" y="422.32" width="96.81" height="72.65"/><rect class="cls-15" x="1217.54" y="576.89" width="14.65" height="72.65" transform="translate(2347.16 1071.86) rotate(180)"/><rect class="cls-5" x="974.73" y="429.47" width="2.81" height="11.51"/><rect class="cls-5" x="978.26" y="429.47" width="1.14" height="11.51"/><rect class="cls-5" x="980.09" y="429.47" width="1.86" height="11.51"/><rect class="cls-5" x="993.24" y="429.47" width="1.86" height="11.51"/><rect class="cls-5" x="982.45" y="429.47" width="0.93" height="11.51"/><rect class="cls-5" x="983.87" y="429.47" width="0.93" height="11.51"/><rect class="cls-5" x="985.85" y="429.47" width="1.14" height="11.51"/><rect class="cls-5" x="987.68" y="429.47" width="1.86" height="11.51"/><rect class="cls-5" x="990.04" y="429.47" width="0.93" height="11.51"/><rect class="cls-5" x="991.46" y="429.47" width="0.93" height="11.51"/><rect class="cls-14" x="967.01" y="478.79" width="30.74" height="9.03"/><rect class="cls-5" x="976.08" y="578.5" width="2.81" height="11.51"/><rect class="cls-5" x="979.61" y="578.5" width="1.14" height="11.51"/><rect class="cls-5" x="981.44" y="578.5" width="1.86" height="11.51"/><rect class="cls-5" x="994.59" y="578.5" width="1.86" height="11.51"/><rect class="cls-5" x="983.8" y="578.5" width="0.93" height="11.51"/><rect class="cls-5" x="985.22" y="578.5" width="0.93" height="11.51"/><rect class="cls-5" x="987.2" y="578.5" width="1.14" height="11.51"/><rect class="cls-5" x="989.03" y="578.5" width="1.86" height="11.51"/><rect class="cls-5" x="991.39" y="578.5" width="0.93" height="11.51"/><rect class="cls-5" x="992.81" y="578.5" width="0.93" height="11.51"/><rect class="cls-14" x="968.36" y="627.82" width="30.74" height="9.03"/><rect class="cls-5" x="1078.91" y="578.5" width="2.81" height="11.51"/><rect class="cls-5" x="1082.44" y="578.5" width="1.14" height="11.51"/><rect class="cls-5" x="1084.27" y="578.5" width="1.86" height="11.51"/><rect class="cls-5" x="1097.42" y="578.5" width="1.86" height="11.51"/><rect class="cls-5" x="1086.63" y="578.5" width="0.93" height="11.51"/><rect class="cls-5" x="1088.05" y="578.5" width="0.93" height="11.51"/><rect class="cls-5" x="1090.03" y="578.5" width="1.14" height="11.51"/><rect class="cls-5" x="1091.86" y="578.5" width="1.86" height="11.51"/><rect class="cls-5" x="1094.21" y="578.5" width="0.93" height="11.51"/><rect class="cls-5" x="1095.64" y="578.5" width="0.93" height="11.51"/><rect class="cls-14" x="1071.19" y="627.82" width="30.74" height="9.03"/><rect class="cls-12" x="1120.64" y="494.97" width="203.03" height="151.62"/><rect class="cls-13" x="1120.64" y="568.01" width="203.03" height="3.31"/><rect class="cls-13" x="1285.77" y="684.4" width="73.04" height="3.31" transform="translate(1905.77 -790.8) rotate(90)"/><rect class="cls-13" x="1286.31" y="761.87" width="75.27" height="3.31" transform="translate(1984.9 -714.99) rotate(90)"/><rect class="cls-5" x="1190.02" y="503.17" width="2.81" height="11.51"/><rect class="cls-5" x="1193.55" y="503.17" width="1.14" height="11.51"/><rect class="cls-5" x="1195.38" y="503.17" width="1.86" height="11.51"/><rect class="cls-5" x="1208.53" y="503.17" width="1.86" height="11.51"/><rect class="cls-5" x="1197.74" y="503.17" width="0.93" height="11.51"/><rect class="cls-5" x="1199.16" y="503.17" width="0.93" height="11.51"/><rect class="cls-5" x="1201.14" y="503.17" width="1.14" height="11.51"/><rect class="cls-5" x="1202.97" y="503.17" width="1.86" height="11.51"/><rect class="cls-5" x="1205.32" y="503.17" width="0.93" height="11.51"/><rect class="cls-5" x="1206.75" y="503.17" width="0.93" height="11.51"/><rect class="cls-14" x="1182.3" y="552.49" width="30.74" height="9.03"/><rect class="cls-5" x="1292.84" y="503.17" width="2.81" height="11.51"/><rect class="cls-5" x="1296.38" y="503.17" width="1.14" height="11.51"/><rect class="cls-5" x="1298.21" y="503.17" width="1.86" height="11.51"/><rect class="cls-5" x="1311.35" y="503.17" width="1.86" height="11.51"/><rect class="cls-5" x="1300.56" y="503.17" width="0.93" height="11.51"/><rect class="cls-5" x="1301.98" y="503.17" width="0.93" height="11.51"/><rect class="cls-5" x="1303.96" y="503.17" width="1.14" height="11.51"/><rect class="cls-5" x="1305.79" y="503.17" width="1.86" height="11.51"/><rect class="cls-5" x="1308.15" y="503.17" width="0.93" height="11.51"/><rect class="cls-5" x="1309.57" y="503.17" width="0.93" height="11.51"/><rect class="cls-14" x="1285.12" y="552.49" width="30.74" height="9.03"/><rect class="cls-5" x="1190.02" y="578.5" width="2.81" height="11.51"/><rect class="cls-5" x="1193.55" y="578.5" width="1.14" height="11.51"/><rect class="cls-5" x="1195.38" y="578.5" width="1.86" height="11.51"/><rect class="cls-5" x="1208.53" y="578.5" width="1.86" height="11.51"/><rect class="cls-5" x="1197.74" y="578.5" width="0.93" height="11.51"/><rect class="cls-5" x="1199.16" y="578.5" width="0.93" height="11.51"/><rect class="cls-5" x="1201.14" y="578.5" width="1.14" height="11.51"/><rect class="cls-5" x="1202.97" y="578.5" width="1.86" height="11.51"/><rect class="cls-5" x="1205.32" y="578.5" width="0.93" height="11.51"/><rect class="cls-5" x="1206.75" y="578.5" width="0.93" height="11.51"/><rect class="cls-14" x="1182.3" y="627.82" width="30.74" height="9.03"/><rect class="cls-5" x="1292.84" y="578.5" width="2.81" height="11.51"/><rect class="cls-5" x="1296.38" y="578.5" width="1.14" height="11.51"/><rect class="cls-5" x="1298.21" y="578.5" width="1.86" height="11.51"/><rect class="cls-5" x="1311.35" y="578.5" width="1.86" height="11.51"/><rect class="cls-5" x="1300.56" y="578.5" width="0.93" height="11.51"/><rect class="cls-5" x="1301.98" y="578.5" width="0.93" height="11.51"/><rect class="cls-5" x="1303.96" y="578.5" width="1.14" height="11.51"/><rect class="cls-5" x="1305.79" y="578.5" width="1.86" height="11.51"/><rect class="cls-5" x="1308.15" y="578.5" width="0.93" height="11.51"/><rect class="cls-5" x="1309.57" y="578.5" width="0.93" height="11.51"/><rect class="cls-14" x="1285.12" y="627.82" width="30.74" height="9.03"/><rect class="cls-15" x="1109.74" y="494.97" width="10.9" height="151.62"/><rect class="cls-15" x="1323.67" y="494.97" width="30.09" height="151.62"/><rect class="cls-16" x="1333.35" y="646.59" width="25.93" height="32.4"/><rect class="cls-17" x="897.98" y="646.59" width="435.37" height="32.4"/><rect class="cls-18" x="897.98" y="652.61" width="435.37" height="2.49"/><rect class="cls-18" x="897.98" y="670.49" width="435.37" height="2.49"/><rect class="cls-10" x="922.84" y="651.26" width="70.64" height="21.72"/><rect class="cls-10" x="1019.12" y="651.26" width="70.64" height="21.72"/><rect class="cls-10" x="1139.74" y="651.26" width="70.64" height="21.72"/><rect class="cls-10" x="1236.02" y="651.26" width="70.64" height="21.72"/><rect class="cls-5" x="1086.19" y="429.47" width="2.81" height="11.51"/><rect class="cls-5" x="1089.72" y="429.47" width="1.14" height="11.51"/><rect class="cls-5" x="1091.55" y="429.47" width="1.86" height="11.51"/><rect class="cls-5" x="1104.7" y="429.47" width="1.86" height="11.51"/><rect class="cls-5" x="1093.91" y="429.47" width="0.93" height="11.51"/><rect class="cls-5" x="1095.33" y="429.47" width="0.93" height="11.51"/><rect class="cls-5" x="1097.31" y="429.47" width="1.14" height="11.51"/><rect class="cls-5" x="1099.14" y="429.47" width="1.86" height="11.51"/><rect class="cls-5" x="1101.5" y="429.47" width="0.93" height="11.51"/><rect class="cls-5" x="1102.92" y="429.47" width="0.93" height="11.51"/><rect class="cls-14" x="1078.47" y="478.79" width="30.74" height="9.03"/><rect class="cls-12" x="1129.62" y="422.32" width="96.81" height="72.65"/><rect class="cls-15" x="1329" y="576.89" width="14.65" height="72.65" transform="translate(2570.08 1071.86) rotate(180)"/><rect class="cls-12" x="1241.08" y="422.32" width="96.81" height="72.65"/><rect class="cls-15" x="1440.46" y="576.89" width="14.65" height="72.65" transform="translate(2793 1071.86) rotate(180)"/><rect class="cls-5" x="1197.65" y="429.47" width="2.81" height="11.51"/><rect class="cls-5" x="1201.18" y="429.47" width="1.14" height="11.51"/><rect class="cls-5" x="1203.01" y="429.47" width="1.86" height="11.51"/><rect class="cls-5" x="1216.16" y="429.47" width="1.86" height="11.51"/><rect class="cls-5" x="1205.37" y="429.47" width="0.93" height="11.51"/><rect class="cls-5" x="1206.79" y="429.47" width="0.93" height="11.51"/><rect class="cls-5" x="1208.77" y="429.47" width="1.14" height="11.51"/><rect class="cls-5" x="1210.6" y="429.47" width="1.86" height="11.51"/><rect class="cls-5" x="1212.95" y="429.47" width="0.93" height="11.51"/><rect class="cls-5" x="1214.38" y="429.47" width="0.93" height="11.51"/><rect class="cls-14" x="1189.93" y="478.79" width="30.74" height="9.03"/><rect class="cls-5" x="1309.11" y="429.47" width="2.81" height="11.51"/><rect class="cls-5" x="1312.64" y="429.47" width="1.14" height="11.51"/><rect class="cls-5" x="1314.47" y="429.47" width="1.86" height="11.51"/><rect class="cls-5" x="1327.62" y="429.47" width="1.86" height="11.51"/><rect class="cls-5" x="1316.83" y="429.47" width="0.93" height="11.51"/><rect class="cls-5" x="1318.25" y="429.47" width="0.93" height="11.51"/><rect class="cls-5" x="1320.23" y="429.47" width="1.14" height="11.51"/><rect class="cls-5" x="1322.06" y="429.47" width="1.86" height="11.51"/><rect class="cls-5" x="1324.41" y="429.47" width="0.93" height="11.51"/><rect class="cls-5" x="1325.84" y="429.47" width="0.93" height="11.51"/><rect class="cls-14" x="1301.39" y="478.79" width="30.74" height="9.03"/><rect class="cls-13" x="906.7" y="492.24" width="445.84" height="2.73"/><rect class="cls-12" x="1460.07" y="444.63" width="228.16" height="170.38"/><rect class="cls-13" x="1460.07" y="526.71" width="228.16" height="3.72"/><rect class="cls-13" x="1632.94" y="638.38" width="82.08" height="3.72" transform="translate(2211.65 -1188.31) rotate(90)"/><rect class="cls-13" x="1633.55" y="725.44" width="84.58" height="3.72" transform="translate(2300.57 -1103.11) rotate(90)"/><rect class="cls-5" x="1538.03" y="453.85" width="3.16" height="12.94"/><rect class="cls-5" x="1542" y="453.85" width="1.29" height="12.94"/><rect class="cls-5" x="1544.06" y="453.85" width="2.09" height="12.94"/><rect class="cls-5" x="1558.84" y="453.85" width="2.09" height="12.94"/><rect class="cls-5" x="1546.71" y="453.85" width="1.05" height="12.94"/><rect class="cls-5" x="1548.31" y="453.85" width="1.05" height="12.94"/><rect class="cls-5" x="1550.53" y="453.85" width="1.29" height="12.94"/><rect class="cls-5" x="1552.59" y="453.85" width="2.09" height="12.94"/><rect class="cls-5" x="1555.23" y="453.85" width="1.05" height="12.94"/><rect class="cls-5" x="1556.83" y="453.85" width="1.05" height="12.94"/><rect class="cls-14" x="1529.36" y="509.27" width="34.55" height="10.14"/><rect class="cls-5" x="1653.58" y="453.85" width="3.16" height="12.94"/><rect class="cls-5" x="1657.55" y="453.85" width="1.29" height="12.94"/><rect class="cls-5" x="1659.61" y="453.85" width="2.09" height="12.94"/><rect class="cls-5" x="1674.39" y="453.85" width="2.09" height="12.94"/><rect class="cls-5" x="1662.26" y="453.85" width="1.05" height="12.94"/><rect class="cls-5" x="1663.86" y="453.85" width="1.05" height="12.94"/><rect class="cls-5" x="1666.08" y="453.85" width="1.29" height="12.94"/><rect class="cls-5" x="1668.14" y="453.85" width="2.09" height="12.94"/><rect class="cls-5" x="1670.78" y="453.85" width="1.05" height="12.94"/><rect class="cls-5" x="1672.38" y="453.85" width="1.05" height="12.94"/><rect class="cls-14" x="1644.91" y="509.27" width="34.55" height="10.14"/><rect class="cls-12" x="1611.69" y="362.99" width="108.79" height="81.64"/><rect class="cls-15" x="1823.05" y="517.56" width="16.47" height="81.64" transform="translate(3559.98 962.2) rotate(180)"/><rect class="cls-12" x="1736.94" y="362.99" width="108.79" height="81.64"/><rect class="cls-15" x="1948.3" y="517.56" width="16.47" height="81.64" transform="translate(3810.49 962.2) rotate(180)"/><rect class="cls-5" x="1688.13" y="371.03" width="3.16" height="12.94"/><rect class="cls-5" x="1692.1" y="371.03" width="1.29" height="12.94"/><rect class="cls-5" x="1694.16" y="371.03" width="2.09" height="12.94"/><rect class="cls-5" x="1708.93" y="371.03" width="2.09" height="12.94"/><rect class="cls-5" x="1696.8" y="371.03" width="1.05" height="12.94"/><rect class="cls-5" x="1698.4" y="371.03" width="1.05" height="12.94"/><rect class="cls-5" x="1700.63" y="371.03" width="1.29" height="12.94"/><rect class="cls-5" x="1702.69" y="371.03" width="2.09" height="12.94"/><rect class="cls-5" x="1705.33" y="371.03" width="1.05" height="12.94"/><rect class="cls-5" x="1706.93" y="371.03" width="1.05" height="12.94"/><rect class="cls-14" x="1679.46" y="426.45" width="34.55" height="10.14"/><rect class="cls-5" x="1538.03" y="538.5" width="3.16" height="12.94"/><rect class="cls-5" x="1542" y="538.5" width="1.29" height="12.94"/><rect class="cls-5" x="1544.06" y="538.5" width="2.09" height="12.94"/><rect class="cls-5" x="1558.84" y="538.5" width="2.09" height="12.94"/><rect class="cls-5" x="1546.71" y="538.5" width="1.05" height="12.94"/><rect class="cls-5" x="1548.31" y="538.5" width="1.05" height="12.94"/><rect class="cls-5" x="1550.53" y="538.5" width="1.29" height="12.94"/><rect class="cls-5" x="1552.59" y="538.5" width="2.09" height="12.94"/><rect class="cls-5" x="1555.23" y="538.5" width="1.05" height="12.94"/><rect class="cls-5" x="1556.83" y="538.5" width="1.05" height="12.94"/><rect class="cls-14" x="1529.36" y="593.92" width="34.55" height="10.14"/><rect class="cls-5" x="1653.58" y="538.5" width="3.16" height="12.94"/><rect class="cls-5" x="1657.55" y="538.5" width="1.29" height="12.94"/><rect class="cls-5" x="1659.61" y="538.5" width="2.09" height="12.94"/><rect class="cls-5" x="1674.39" y="538.5" width="2.09" height="12.94"/><rect class="cls-5" x="1662.26" y="538.5" width="1.05" height="12.94"/><rect class="cls-5" x="1663.86" y="538.5" width="1.05" height="12.94"/><rect class="cls-5" x="1666.08" y="538.5" width="1.29" height="12.94"/><rect class="cls-5" x="1668.14" y="538.5" width="2.09" height="12.94"/><rect class="cls-5" x="1670.78" y="538.5" width="1.05" height="12.94"/><rect class="cls-5" x="1672.38" y="538.5" width="1.05" height="12.94"/><rect class="cls-14" x="1644.91" y="593.92" width="34.55" height="10.14"/><rect class="cls-12" x="1700.48" y="444.63" width="228.16" height="170.38"/><rect class="cls-13" x="1700.48" y="526.71" width="228.16" height="3.72"/><rect class="cls-13" x="1873.35" y="638.38" width="82.08" height="3.72" transform="translate(2452.06 -1428.72) rotate(90)"/><rect class="cls-13" x="1873.96" y="725.44" width="84.58" height="3.72" transform="translate(2540.98 -1343.52) rotate(90)"/><rect class="cls-5" x="1778.44" y="453.85" width="3.16" height="12.94"/><rect class="cls-5" x="1782.41" y="453.85" width="1.29" height="12.94"/><rect class="cls-5" x="1784.47" y="453.85" width="2.09" height="12.94"/><rect class="cls-5" x="1799.25" y="453.85" width="2.09" height="12.94"/><rect class="cls-5" x="1787.12" y="453.85" width="1.05" height="12.94"/><rect class="cls-5" x="1788.72" y="453.85" width="1.05" height="12.94"/><rect class="cls-5" x="1790.94" y="453.85" width="1.29" height="12.94"/><rect class="cls-5" x="1793" y="453.85" width="2.09" height="12.94"/><rect class="cls-5" x="1795.64" y="453.85" width="1.05" height="12.94"/><rect class="cls-5" x="1797.24" y="453.85" width="1.05" height="12.94"/><rect class="cls-14" x="1769.77" y="509.27" width="34.55" height="10.14"/><rect class="cls-5" x="1893.99" y="453.85" width="3.16" height="12.94"/><rect class="cls-5" x="1897.96" y="453.85" width="1.29" height="12.94"/><rect class="cls-5" x="1900.02" y="453.85" width="2.09" height="12.94"/><rect class="cls-5" x="1914.8" y="453.85" width="2.09" height="12.94"/><rect class="cls-5" x="1902.67" y="453.85" width="1.05" height="12.94"/><rect class="cls-5" x="1904.27" y="453.85" width="1.05" height="12.94"/><rect class="cls-5" x="1906.49" y="453.85" width="1.29" height="12.94"/><rect class="cls-5" x="1908.55" y="453.85" width="2.09" height="12.94"/><rect class="cls-5" x="1911.19" y="453.85" width="1.05" height="12.94"/><rect class="cls-5" x="1912.79" y="453.85" width="1.05" height="12.94"/><rect class="cls-14" x="1885.32" y="509.27" width="34.55" height="10.14"/><rect class="cls-5" x="1778.44" y="538.5" width="3.16" height="12.94"/><rect class="cls-5" x="1782.41" y="538.5" width="1.29" height="12.94"/><rect class="cls-5" x="1784.47" y="538.5" width="2.09" height="12.94"/><rect class="cls-5" x="1799.25" y="538.5" width="2.09" height="12.94"/><rect class="cls-5" x="1787.12" y="538.5" width="1.05" height="12.94"/><rect class="cls-5" x="1788.72" y="538.5" width="1.05" height="12.94"/><rect class="cls-5" x="1790.94" y="538.5" width="1.29" height="12.94"/><rect class="cls-5" x="1793" y="538.5" width="2.09" height="12.94"/><rect class="cls-5" x="1795.64" y="538.5" width="1.05" height="12.94"/><rect class="cls-5" x="1797.24" y="538.5" width="1.05" height="12.94"/><rect class="cls-14" x="1769.77" y="593.92" width="34.55" height="10.14"/><rect class="cls-5" x="1893.99" y="538.5" width="3.16" height="12.94"/><rect class="cls-5" x="1897.96" y="538.5" width="1.29" height="12.94"/><rect class="cls-5" x="1900.02" y="538.5" width="2.09" height="12.94"/><rect class="cls-5" x="1914.8" y="538.5" width="2.09" height="12.94"/><rect class="cls-5" x="1902.67" y="538.5" width="1.05" height="12.94"/><rect class="cls-5" x="1904.27" y="538.5" width="1.05" height="12.94"/><rect class="cls-5" x="1906.49" y="538.5" width="1.29" height="12.94"/><rect class="cls-5" x="1908.55" y="538.5" width="2.09" height="12.94"/><rect class="cls-5" x="1911.19" y="538.5" width="1.05" height="12.94"/><rect class="cls-5" x="1912.79" y="538.5" width="1.05" height="12.94"/><rect class="cls-14" x="1885.32" y="593.92" width="34.55" height="10.14"/><rect class="cls-15" x="1688.23" y="444.63" width="12.25" height="170.38"/><rect class="cls-15" x="1928.64" y="444.63" width="33.81" height="170.38"/><path class="cls-19" d="M1345.07,940.66l187.4-84A21.54,21.54,0,0,0,1545.2,837h0a21.53,21.53,0,0,0-30.48-19.58L1245,940.66Z" transform="translate(-102.57 -154.57)"/><path class="cls-20" d="M1539.88,822.87a21.48,21.48,0,0,0-25.16-5.42L1245,940.66h12l261.82-119.59A21.36,21.36,0,0,1,1539.88,822.87Z" transform="translate(-102.57 -154.57)"/><rect class="cls-12" x="1371.42" y="772.72" width="108.79" height="81.64" transform="translate(-311.7 511.41) rotate(-24.55)"/><rect class="cls-15" x="1474.55" y="746.7" width="16.47" height="81.64" transform="translate(3056.15 733.17) rotate(155.45)"/><rect class="cls-5" x="1434.8" y="773.32" width="3.16" height="12.94" transform="translate(-296.72 512.76) rotate(-24.55)"/><rect class="cls-5" x="1438.49" y="772.06" width="1.29" height="12.94" transform="translate(-295.95 513.83) rotate(-24.55)"/><rect class="cls-5" x="1440.33" y="771.03" width="2.09" height="12.94" transform="translate(-295.31 514.59) rotate(-24.55)"/><rect class="cls-5" x="1453.77" y="764.9" width="2.09" height="12.94" transform="translate(-291.55 519.62) rotate(-24.55)"/><rect class="cls-5" x="1442.78" y="770.15" width="1.05" height="12.94" transform="translate(-294.77 515.35) rotate(-24.55)"/><rect class="cls-5" x="1444.24" y="769.49" width="1.05" height="12.94" transform="translate(-294.37 515.89) rotate(-24.55)"/><rect class="cls-5" x="1446.25" y="768.52" width="1.29" height="12.94" transform="translate(-293.77 516.73) rotate(-24.55)"/><rect class="cls-5" x="1448.08" y="767.49" width="2.09" height="12.94" transform="translate(-293.14 517.5) rotate(-24.55)"/><rect class="cls-5" x="1450.54" y="766.61" width="1.05" height="12.94" transform="translate(-292.6 518.25) rotate(-24.55)"/><rect class="cls-5" x="1451.99" y="765.95" width="1.05" height="12.94" transform="translate(-292.19 518.79) rotate(-24.55)"/><rect class="cls-14" x="1447.94" y="820.94" width="34.55" height="10.14" transform="translate(-313.32 528.91) rotate(-24.55)"/><rect class="cls-12" x="1254.35" y="826.2" width="108.79" height="81.64" transform="translate(-344.5 467.6) rotate(-24.55)"/><rect class="cls-15" x="1357.48" y="800.18" width="16.47" height="81.64" transform="translate(2854.82 883.93) rotate(155.45)"/><rect class="cls-5" x="1317.73" y="826.8" width="3.16" height="12.94" transform="translate(-329.52 468.91) rotate(-24.55)"/><rect class="cls-5" x="1321.42" y="825.54" width="1.29" height="12.94" transform="translate(-328.75 470.02) rotate(-24.55)"/><rect class="cls-5" x="1323.26" y="824.51" width="2.09" height="12.94" transform="translate(-328.12 470.79) rotate(-24.55)"/><rect class="cls-5" x="1336.7" y="818.37" width="2.09" height="12.94" transform="translate(-324.35 475.81) rotate(-24.55)"/><rect class="cls-5" x="1325.71" y="823.63" width="1.05" height="12.94" transform="translate(-327.6 471.67) rotate(-24.56)"/><rect class="cls-5" x="1327.17" y="822.97" width="1.05" height="12.94" transform="translate(-327.17 472.08) rotate(-24.55)"/><rect class="cls-5" x="1329.18" y="821.99" width="1.29" height="12.94" transform="translate(-326.58 472.92) rotate(-24.55)"/><rect class="cls-5" x="1331.02" y="820.97" width="2.09" height="12.94" transform="translate(-325.94 473.69) rotate(-24.55)"/><rect class="cls-5" x="1333.47" y="820.09" width="1.05" height="12.94" transform="translate(-325.41 474.44) rotate(-24.55)"/><rect class="cls-5" x="1334.92" y="819.42" width="1.05" height="12.94" transform="translate(-325.02 475.12) rotate(-24.56)"/><rect class="cls-14" x="1330.87" y="874.42" width="34.55" height="10.14" transform="translate(-346.12 485.1) rotate(-24.55)"/><path class="cls-20" d="M1469.67,653.19h767.1a0,0,0,0,1,0,0v70.26a17.36,17.36,0,0,1-17.36,17.36H1487a17.36,17.36,0,0,1-17.36-17.36V653.19A0,0,0,0,1,1469.67,653.19Z"/><rect class="cls-19" x="1442.62" y="651.43" width="515.71" height="36.46"/><path class="cls-21" d="M2238.84,806c33.85,0,63,18.58,76.69,45.46V755a18.45,18.45,0,0,0-14.18-17.94l-68.74-16.33-65.27-101.14H2060.91V861.27h97.18V861C2169.17,829.07,2201.13,806,2238.84,806Z" transform="translate(-102.57 -154.57)"/><path class="cls-22" d="M2339.48,737.06l-68.74-16.33-65.27-101.14h-38.13l65.27,101.14,68.74,16.33A18.45,18.45,0,0,1,2315.53,755V861.27h38.12V755A18.44,18.44,0,0,0,2339.48,737.06Z" transform="translate(-102.57 -154.57)"/><rect class="cls-23" x="1958.34" y="597.52" width="254.62" height="36.46"/><rect class="cls-24" x="2034" y="606.15" width="69.39" height="16.47" rx="7.15"/><path class="cls-25" d="M2100.31,719.85h95a11.25,11.25,0,0,0,9.45-17.34L2160,633.11h-59.64a8.24,8.24,0,0,0-8.24,8.24v70.27A8.24,8.24,0,0,0,2100.31,719.85Z" transform="translate(-102.57 -154.57)"/><path class="cls-25" d="M2212,633.11h-28.72a4,4,0,0,0-3.32,6.09L2230.88,718a4,4,0,0,0,3.32,1.81h28.72a4,4,0,0,0,3.32-6.09l-50.88-78.84A3.94,3.94,0,0,0,2212,633.11Z" transform="translate(-102.57 -154.57)"/><rect class="cls-20" x="1993.62" y="606.15" width="19.01" height="9.6" rx="4.09"/><rect class="cls-26" x="2164.31" y="610.95" width="24.93" height="8.13" rx="3.53"/><path class="cls-27" d="M2207.43,610.95h43.65a0,0,0,0,1,0,0v33.81a0,0,0,0,1,0,0h-43.65a6,6,0,0,1-6-6V617A6,6,0,0,1,2207.43,610.95Z"/><rect class="cls-28" x="2212.96" y="610.95" width="13.28" height="33.81"/><rect class="cls-28" x="2238.24" y="610.95" width="12.84" height="33.81"/><rect class="cls-24" x="2226.24" y="610.95" width="12.01" height="33.81"/><rect class="cls-24" x="2205.02" y="653.19" width="19.7" height="8.97" rx="3.89"/><rect class="cls-24" x="2238.24" y="653.19" width="19.7" height="8.97" rx="3.89"/><rect class="cls-29" x="1427.92" y="667.6" width="51.75" height="46.75" rx="5.87"/><path class="cls-20" d="M1757.24,895.38a55.07,55.07,0,0,1-25.43,37.21,56.75,56.75,0,0,0,5.86.32,55,55,0,0,0,52.14-37.53Z" transform="translate(-102.57 -154.57)"/><circle class="cls-30" cx="1703.13" cy="885.68" r="54.98" transform="translate(314.84 2156.59) rotate(-75.43)"/><circle class="cls-27" cx="1703.13" cy="885.68" r="27.6" transform="translate(311.3 2153.39) rotate(-75.28)"/><circle class="cls-23" cx="1703.13" cy="885.68" r="22.6" transform="translate(434.47 2256) rotate(-80.07)"/><circle class="cls-20" cx="1703.13" cy="885.68" r="7.75" transform="translate(454.1 2270.82) rotate(-80.8)"/><path class="cls-29" d="M1703.13,822.17A63.51,63.51,0,0,1,1761.65,861h22.23c-11.09-31.91-43-55-80.75-55s-69.67,23.07-80.76,55h22.23A63.51,63.51,0,0,1,1703.13,822.17Z" transform="translate(-102.57 -154.57)"/><path class="cls-20" d="M2293,895.38a55,55,0,0,1-25.42,37.21,56.6,56.6,0,0,0,5.86.32,55,55,0,0,0,52.14-37.53Z" transform="translate(-102.57 -154.57)"/><circle class="cls-30" cx="2238.84" cy="885.68" r="54.98" transform="translate(903.41 2799.17) rotate(-80.78)"/><circle class="cls-27" cx="2238.84" cy="885.68" r="27.6" transform="translate(903.41 2799.17) rotate(-80.78)"/><circle class="cls-23" cx="2238.84" cy="885.68" r="22.6" transform="translate(903.41 2799.17) rotate(-80.78)"/><path class="cls-29" d="M2238.84,822.17A63.52,63.52,0,0,1,2297.37,861h22.22c-11.08-31.91-43-55-80.75-55s-69.67,23.07-80.75,55h22.23A63.51,63.51,0,0,1,2238.84,822.17Z" transform="translate(-102.57 -154.57)"/><rect class="cls-31" x="2185.32" y="669.66" width="72.92" height="42.73" rx="4.6"/><path class="cls-29" d="M2189.91,669.66h31.86a0,0,0,0,1,0,0v42.73a0,0,0,0,1,0,0h-31.86a4.6,4.6,0,0,1-4.6-4.6V674.25A4.6,4.6,0,0,1,2189.91,669.66Z"/><rect class="cls-24" x="2224.72" y="683.28" width="6.66" height="15.49" rx="2.89"/><path class="cls-32" d="M2327.29,850v-8.82a3.33,3.33,0,0,1,2.45-3.2,3.23,3.23,0,0,0-.88-.13,3.33,3.33,0,0,0-3.33,3.33V850a3.33,3.33,0,0,0,3.33,3.33,3.23,3.23,0,0,0,.88-.13A3.33,3.33,0,0,1,2327.29,850Z" transform="translate(-102.57 -154.57)"/><rect class="cls-24" x="2248.63" y="683.28" width="6.66" height="15.49" rx="2.89"/><path class="cls-32" d="M2351.2,850v-8.82a3.33,3.33,0,0,1,2.45-3.2,3.17,3.17,0,0,0-.88-.13,3.33,3.33,0,0,0-3.33,3.33V850a3.33,3.33,0,0,0,3.33,3.33,3.17,3.17,0,0,0,.88-.13A3.33,3.33,0,0,1,2351.2,850Z" transform="translate(-102.57 -154.57)"/><rect class="cls-19" x="2097.11" y="544.01" width="12.94" height="38.81" rx="4.09"/><path class="cls-20" d="M2207.92,698.58h-1.37v38.81h1.37a4.69,4.69,0,0,0,4.7-4.7v-29.4A4.7,4.7,0,0,0,2207.92,698.58Z" transform="translate(-102.57 -154.57)"/><circle class="cls-20" cx="2238.84" cy="885.68" r="7.75" transform="translate(903.41 2799.17) rotate(-80.78)"/><rect class="cls-16" x="1939.52" y="615.02" width="18.82" height="36.41"/><rect class="cls-17" x="1450.27" y="615.02" width="489.25" height="36.41"/><rect class="cls-18" x="1450.27" y="621.78" width="489.25" height="2.79"/><rect class="cls-18" x="1450.27" y="641.87" width="489.25" height="2.79"/><rect class="cls-10" x="1478.2" y="620.26" width="79.39" height="24.4"/><rect class="cls-10" x="1586.4" y="620.26" width="79.39" height="24.4"/><rect class="cls-10" x="1721.94" y="620.26" width="79.39" height="24.4"/><rect class="cls-10" x="1830.14" y="620.26" width="79.39" height="24.4"/><rect class="cls-13" x="1460.07" y="612.13" width="228.16" height="2.89"/><rect class="cls-5" x="1813.38" y="371.03" width="3.16" height="12.94"/><rect class="cls-5" x="1817.35" y="371.03" width="1.29" height="12.94"/><rect class="cls-5" x="1819.41" y="371.03" width="2.09" height="12.94"/><rect class="cls-5" x="1834.19" y="371.03" width="2.09" height="12.94"/><rect class="cls-5" x="1822.06" y="371.03" width="1.05" height="12.94"/><rect class="cls-5" x="1823.66" y="371.03" width="1.05" height="12.94"/><rect class="cls-5" x="1825.88" y="371.03" width="1.29" height="12.94"/><rect class="cls-5" x="1827.94" y="371.03" width="2.09" height="12.94"/><rect class="cls-5" x="1830.58" y="371.03" width="1.05" height="12.94"/><rect class="cls-5" x="1832.18" y="371.03" width="1.05" height="12.94"/><rect class="cls-14" x="1804.71" y="426.45" width="34.55" height="10.14"/><path class="cls-10" d="M735.42,363h-7.94l-7.18-37.54L713.61,363h-8l-10.38-55.38h8.32l6.28,35.72,6.65-35.72h7.42l7.3,35.72,5.55-35.72h8.07Z" transform="translate(-102.57 -154.57)"/><path class="cls-10" d="M790.06,363l-2.31-12H775.87l-2.15,12h-8.39L776,307.65h11.72L798.86,363Zm-8.39-44.76-4.38,24.82h9Z" transform="translate(-102.57 -154.57)"/><path class="cls-10" d="M842.35,363l-7.3-22.74H829.9V363h-8.55V307.65h13.38q7.78,0,11.86,4t4.07,11.82a21.16,21.16,0,0,1-1.66,8.4,12.28,12.28,0,0,1-5.8,6.08l8.11,25Zm-.57-39a14.7,14.7,0,0,0-.42-3.53,7.4,7.4,0,0,0-1.65-3.08,5,5,0,0,0-3.08-1.58,27.33,27.33,0,0,0-3.57-.24H829.9v16.82h3.16q4.76,0,6.73-1.74T841.78,324Z" transform="translate(-102.57 -154.57)"/><path class="cls-10" d="M874.4,363V307.65h25.06v7.91H883v14.59h12.2v7.91H883v17.07h16.5V363Z" transform="translate(-102.57 -154.57)"/><path class="cls-10" d="M942.62,363v-24.4H930.5V363H922V307.65h8.55v23.07h12.12V307.65h8.64V363Z" transform="translate(-102.57 -154.57)"/><path class="cls-10" d="M1005.86,345.44a45.92,45.92,0,0,1-.49,6.85,14,14,0,0,1-2.63,6.24,11.38,11.38,0,0,1-5.3,4.12,19.05,19.05,0,0,1-13.31,0,11.68,11.68,0,0,1-5.32-4.12,13.26,13.26,0,0,1-2.65-6.24,46.75,46.75,0,0,1-.51-6.85V325.25a41.18,41.18,0,0,1,.55-6.81,14.64,14.64,0,0,1,2.61-6.21,11.41,11.41,0,0,1,5.27-4.15,18.35,18.35,0,0,1,6.7-1.24,17.69,17.69,0,0,1,6.66,1.24,12.24,12.24,0,0,1,5.3,4.15,13,13,0,0,1,2.63,6.21,47.27,47.27,0,0,1,.49,6.81Zm-8.52-20c0-1.27,0-2.56-.1-3.85a9.14,9.14,0,0,0-1-3.69,5.55,5.55,0,0,0-2.33-2.25,6.88,6.88,0,0,0-3.14-.75,6.39,6.39,0,0,0-3.76.95,5.75,5.75,0,0,0-1.94,2.49,10.84,10.84,0,0,0-.75,3.41q-.12,1.86-.12,3.69v19.87q0,1.82.12,3.69a10.77,10.77,0,0,0,.75,3.4,5.64,5.64,0,0,0,1.94,2.49,7.77,7.77,0,0,0,7.48,0,5.33,5.33,0,0,0,2-2.49,11.35,11.35,0,0,0,.75-3.4c.1-1.25.14-2.48.14-3.69Z" transform="translate(-102.57 -154.57)"/><path class="cls-10" d="M1059.1,352.37a13.82,13.82,0,0,1-2.7,6.53,11,11,0,0,1-5.11,3.79,18.19,18.19,0,0,1-6.36,1.16,17.23,17.23,0,0,1-6.35-1.16,12.29,12.29,0,0,1-5.09-3.79,13.52,13.52,0,0,1-2.69-6.57,56.42,56.42,0,0,1-.47-7.14V307.65h8.55v38.92c0,1.11.06,2.22.17,3.33a8.84,8.84,0,0,0,.79,3,5.1,5.1,0,0,0,1.82,2.13,5.94,5.94,0,0,0,3.27.79,6,6,0,0,0,3.3-.79,5,5,0,0,0,1.82-2.13,9.08,9.08,0,0,0,.8-3c.1-1.11.16-2.22.16-3.33V307.65h8.55v37.54A54.81,54.81,0,0,1,1059.1,352.37Z" transform="translate(-102.57 -154.57)"/><path class="cls-10" d="M1114,349.74a14.61,14.61,0,0,1-1.16,5.94,12.57,12.57,0,0,1-3.22,4.43,14.11,14.11,0,0,1-4.81,2.78,17.9,17.9,0,0,1-6,1q-7.65,0-11.63-4.18c-2.65-2.78-4.37-6.6-5.15-11.43l8.23-2.4a19.85,19.85,0,0,0,.83,3.61,12.09,12.09,0,0,0,1.58,3.2,8,8,0,0,0,2.47,2.3,7.15,7.15,0,0,0,3.67.87,5.88,5.88,0,0,0,6.29-6.33,7.75,7.75,0,0,0-1.56-4.68,23.2,23.2,0,0,0-4-4.12q-2.4-2-5.15-3.93a42.29,42.29,0,0,1-5.14-4.32,22.37,22.37,0,0,1-4-5.27,14.84,14.84,0,0,1-.46-12.32,12.58,12.58,0,0,1,3.08-4.32,13.73,13.73,0,0,1,4.58-2.74,16.5,16.5,0,0,1,5.65-1,15.4,15.4,0,0,1,5.86,1,13.71,13.71,0,0,1,4.44,2.9,17.08,17.08,0,0,1,3.21,4.4,25.1,25.1,0,0,1,2,5.54l-8.19,2.39c-.24-.89-.55-1.84-.93-2.84a10.73,10.73,0,0,0-1.44-2.66,8.22,8.22,0,0,0-2.09-1.94,5.14,5.14,0,0,0-2.88-.79,5.33,5.33,0,0,0-4,1.62,5.54,5.54,0,0,0-1.58,4,7.36,7.36,0,0,0,1.58,4.58,23.1,23.1,0,0,0,4,4q2.42,1.9,5.15,3.91a44.16,44.16,0,0,1,5.15,4.42,21.83,21.83,0,0,1,4,5.43A14.88,14.88,0,0,1,1114,349.74Z" transform="translate(-102.57 -154.57)"/><path class="cls-10" d="M1136.57,363V307.65h25v7.91h-16.5v14.59h12.2v7.91h-12.2v17.07h16.5V363Z" transform="translate(-102.57 -154.57)"/><circle class="cls-30" cx="621.86" cy="753.96" r="53.36"/><circle class="cls-23" cx="621.86" cy="753.96" r="23.79"/><circle class="cls-30" cx="724.43" cy="908.53" r="9.47" transform="translate(-456.17 320.28) rotate(-29.52)"/><circle class="cls-30" cx="393.92" cy="753.96" r="53.36"/><circle class="cls-23" cx="393.92" cy="753.96" r="23.79"/><circle class="cls-30" cx="496.49" cy="908.53" r="9.47" transform="translate(-298.03 -16.2) rotate(-13.28)"/><path class="cls-21" d="M504.6,840.07a69.24,69.24,0,0,0-31.9,3.75V812.25a16,16,0,0,1,16.05-16h35.32l17,43.4H720.48v.12A68.93,68.93,0,0,0,661.67,937H559.25a68.9,68.9,0,0,0-54.65-96.95Z" transform="translate(-102.57 -154.57)"/><path class="cls-23" d="M720.48,839.72c1.31-.07,2.63-.12,3.95-.12a68.93,68.93,0,0,1,68.93,68.93H777.8A53.37,53.37,0,1,0,679.36,937H661.67a68.93,68.93,0,0,1,58.81-97.3Z" transform="translate(-102.57 -154.57)"/><path class="cls-23" d="M472.7,843.82A68.93,68.93,0,0,1,559.25,937H541.56a53.34,53.34,0,1,0-98.43-28.49H427.56A69,69,0,0,1,472.7,843.82Z" transform="translate(-102.57 -154.57)"/><path class="cls-33" d="M531.7,747.09l11.51,42.32a11.73,11.73,0,0,0,11.32,8.64h51a18.68,18.68,0,0,1,14.94,7.47l14.41,19.21V839.6H541.12l-17-43.4H513.62V748.34a4.76,4.76,0,0,1,4.76-4.76h8.72A4.77,4.77,0,0,1,531.7,747.09Z" transform="translate(-102.57 -154.57)"/><path class="cls-33" d="M663.69,671.73l87,173.06a68.49,68.49,0,0,0-21.07-5l-21-41.77L646.71,674.89a17.26,17.26,0,0,0-15.42-9.51H522.61a14.43,14.43,0,0,0-14.43,14.44V796.2H489.61V679.84a34.46,34.46,0,0,1,34.46-34.47h96.87A47.84,47.84,0,0,1,663.69,671.73Z" transform="translate(-102.57 -154.57)"/><path class="cls-34" d="M777.8,908.53a53.13,53.13,0,0,1-5.65,23.8H819.8V850.51H838V829.76h-9.26V808.64H773.47v41.87h11.12v24.38a68.56,68.56,0,0,1,8.77,33.64Zm20.75-58h6.61v37.8h-6.61Z" transform="translate(-102.57 -154.57)"/><path class="cls-33" d="M700.64,824.73V798.05h8l21,41.77c-1.71-.13-3.44-.22-5.19-.22-1.32,0-2.64,0-3.95.12v-.12h-85.6V824.73Z" transform="translate(-102.57 -154.57)"/><rect class="cls-34" x="784.59" y="627.22" width="13.96" height="181.42" transform="translate(1480.57 1281.28) rotate(180)"/><rect class="cls-34" x="805.05" y="627.22" width="13.96" height="181.42" transform="translate(1521.49 1281.28) rotate(180)"/><rect class="cls-33" x="837.95" y="826.05" width="157.87" height="30.02" transform="translate(1731.2 1527.56) rotate(180)"/><polygon class="cls-23" points="563.42 621.53 573.67 612.89 598.07 643.48 598.07 664.96 563.42 621.53"/><rect class="cls-21" x="660.65" y="501.36" width="77.08" height="13.53"/><polygon class="cls-21" points="737.73 514.89 716.44 525.51 716.44 514.89 737.73 514.89"/><polygon class="cls-21" points="660.65 514.89 681.94 525.51 681.94 514.89 660.65 514.89"/><rect class="cls-21" x="660.65" y="459.12" width="77.08" height="13.53"/><polygon class="cls-21" points="737.73 472.64 716.44 483.27 716.44 472.64 737.73 472.64"/><polygon class="cls-21" points="660.65 472.64 681.94 483.27 681.94 472.64 660.65 472.64"/><path class="cls-33" d="M643.4,797.2a2,2,0,0,0,1.32-.49L683,764.42a2.05,2.05,0,1,0-2.65-3.14l-38.32,32.29a2.06,2.06,0,0,0,1.33,3.63Z" transform="translate(-102.57 -154.57)"/><rect class="cls-35" x="873.36" y="743.58" width="108.79" height="81.64" transform="translate(1752.94 1414.22) rotate(180)"/><rect class="cls-12" x="754.32" y="589.01" width="16.47" height="81.64"/><rect class="cls-5" x="799.97" y="597.04" width="3.16" height="12.94"/><rect class="cls-5" x="797.88" y="597.04" width="1.29" height="12.94"/><rect class="cls-5" x="795.01" y="597.04" width="2.09" height="12.94"/><rect class="cls-5" x="780.23" y="597.04" width="2.09" height="12.94"/><rect class="cls-5" x="793.41" y="597.04" width="1.05" height="12.94"/><rect class="cls-5" x="791.81" y="597.04" width="1.05" height="12.94"/><rect class="cls-5" x="789.35" y="597.04" width="1.29" height="12.94"/><rect class="cls-5" x="786.48" y="597.04" width="2.09" height="12.94"/><rect class="cls-5" x="784.88" y="597.04" width="1.05" height="12.94"/><rect class="cls-5" x="783.29" y="597.04" width="1.05" height="12.94"/><rect class="cls-14" x="879.83" y="807.04" width="34.55" height="10.14" transform="translate(1691.64 1469.65) rotate(180)"/><rect class="cls-15" x="856.9" y="822.77" width="125.25" height="2.45" transform="translate(1736.47 1493.42) rotate(180)"/></svg>